<svg xmlns="http://www.w3.org/2000/svg" viewBox="0 0 880.45 881.85"><g id="Layer_2" data-name="Layer 2"><g id="Layer_1-2" data-name="Layer 1"><path d="M341.09,489.26l-11.27-12.05c-4.52,8.5-10.71,12-18.61,9.9a15.3,15.3,0,0,1-11-14.49,14.9,14.9,0,0,1,12-14.59c7.78-1.72,13.56,1.9,17.65,10.4,3-3.66,6.36-7.63,9.47-11.36l-9.18-9.89c-2.33,2.24-4.87,6.13-8.43,7.67s-8.21,1.48-12,.52c-6.26-1.61-10.12-8.33-9.71-14.72a15.38,15.38,0,0,1,11.68-14c7.32-1.8,13.26,1.48,18.07,9.54l9.47-10.4-9.1-10.33c-2,2.16-4.26,6-7.58,7.62a19.62,19.62,0,0,1-11.85,1.33c-6.83-1.43-11.11-8.31-10.61-15A15.45,15.45,0,0,1,312,395.53c7.72-1.6,13.79,2,17.84,10.1l10.41-11.7c-5.48-2.87-10.09-7.87-9.54-15.66S336,365.65,343,363.56c-3-2.4-7-4.29-8.82-7.44a20.68,20.68,0,0,1-2.13-11.81c.7-6.31,7-10.95,13.49-11.23,7.67-.34,12.88,3.63,15.89,12.6,2.56-7.46,6.82-12.72,14.64-13.43s13.19,3.48,16.63,10.39c1.81-2.35,3.22-4.77,5.19-6.58s4.41-2.87,6.09-3.92c-2.59-2.46-6.39-4.72-8.1-8.06a19.14,19.14,0,0,1-1.45-11.42c1.22-6.73,8.11-11.3,14.82-11a15.45,15.45,0,0,1,14.28,11.95c1.66,7.43-1.91,13.47-10.08,17.79l10.9,9.39,8.56-7.84c-1.75-2.5-4.86-5.52-6.17-9.18a22.2,22.2,0,0,1-.92-11.93c1.57-6.6,8.26-10.62,14.84-10.24a15.49,15.49,0,0,1,13.9,11.14c2,7.65-1.17,13.64-9.43,18.62l10.5,9.56,11.23-9.5c-8.16-3.77-12-9.7-10.54-17.17a15,15,0,0,1,14.25-12.48,15.24,15.24,0,0,1,15,11c2.15,7.83-1.41,14.07-9.89,18.61l11.7,10.94c1.76-2,3.78-5.43,6.8-7.2a18.74,18.74,0,0,1,10.38-2.28c6.72.52,11.82,6,13,12.68,1.23,7-2.19,12.74-9.65,17.08l10.94,11.1c5.43-8.34,10.51-11.1,18.3-9.34a15.47,15.47,0,0,1,11.5,13c.84,7.12-2.7,12.43-11.77,17.17,7.2,2.77,12,7.28,12.21,15.18s-4,12.76-11.29,16c6.08,2.85,10.37,6.84,11.28,12.87,2.41-3,4.41-7.32,7.77-9.19a19.64,19.64,0,0,1,12.26-1.7c6.55,1.19,10.47,7.88,10,14.81A14.47,14.47,0,0,1,567,456c-7.38,1.36-12.89-2.48-17.68-12.63-1.4,6.85-5.21,11.36-12.24,13.76,7.7,3.32,12.14,8.23,11.78,16.28s-5.29,12.48-12.08,14.77c2.91,2.24,6.6,3.94,8.49,6.82a18.78,18.78,0,0,1,2.93,10.68c-.37,7.09-6.06,12.27-12.92,13.12-7.58,1-12.94-2.73-16.43-10.41l-11.7,11.87c1.88,1.61,5.83,3.65,7.57,6.87a20.66,20.66,0,0,1,1.85,11.84c-.85,6.29-7.09,10.81-13.63,11.21-7.05.43-12.74-4-15.92-12.89-2.63,7.46-6.81,12.66-14.8,13.19s-13.12-3.7-16.62-11.47c-2.68,6.6-7,10.69-13.87,11.87,10.66,5.23,14.31,10.85,12.4,18.65a14.62,14.62,0,0,1-28.59-.68c-1.5-7.86,2.31-13.44,11-17.13l-13-10.75c-2.84,6-8.16,10.56-16.79,9.57-7.14-.81-11.21-5.21-13.73-12.25-3.8,8.52-9.54,13.69-19.11,11.48a13.9,13.9,0,0,1-11.25-12c-1.43-8.7,2.88-14.28,9.52-17.29l-11.17-11c-4.64,7.72-10.43,11-17.55,9.54A15.68,15.68,0,0,1,331,505.18C330.32,498.25,334.11,492.55,341.09,489.26Zm169.29.49,7.6,9.18,11-10.51-11.35-9.64,2.7,1.78ZM479,522.17l-1.45-2.76,9.95,12.05a15.26,15.26,0,0,1,10.71-11.16l-10.12-8.59ZM350.17,362.59l9.92,8.3,9.18-9.32-8.21-9.9A15.06,15.06,0,0,1,350.17,362.59Zm33.17,157.1c3.29,3.57,6.78,7.34,9.63,10.44l9-10.68-1.27,2.27c-2.9-3.43-5.8-6.87-8.27-9.81ZM518.2,384.83l-7.46,8.63,8.93,8.58,8.82-7.48C525.23,391.48,521.5,387.94,518.2,384.83Zm-30.09-14.39,8.33-7.22-9.52-9.75-7.21,8.34ZM369,489.56l-8.47-8.46-8.56,7.31,9.74,9.63Zm86.8,22.24-8.68,8,8.45,9.76,9.21-9.75Zm62.43-45.55,9.83-9.1-9.7-8.5-8.1,8.58Zm.08-31.94,9.66-8.43-9.66-8.71-7.88,8.63Zm-85.46,85.61-8.54-8-8.64,7.83,8.63,9.61Zm-71.33-134.4,1.62,1.25-9.74,9.5-1.08-1.9,9.27,8.21,7.83-8.18C366.71,391.4,364.1,388.46,361.49,385.52Zm24-21.19,6.48,5.79,7.9-8.37-7.16-8.14,2.16,2ZM488.22,481.88l-8.07,7.6,7.08,8.15-2-1.68,9.27-9,1.7,2ZM448,363l7.73,7.34,8.49-7.62-1.43,1.58-8-9Zm-86.56,86.55-8.58,7.61,8.68,8.26,7.2-8.19C366.26,454.62,363.87,452.1,361.46,449.56ZM416.4,363l7.81,7.22,7.6-7.25-7.54-8.41Zm-54.89,54.89-8.45,7.91,8.4,7.63,7.18-7.7Zm37.57,71.86-6.44-8-6.89,6.19,8.25,7.53Zm87.31-102.45-5.66,6.24,7.09,7.38,7.49-6.65-1.6,1.49Zm-30.56,95L449,488.81c2.29,2.49,4.59,5,5.89,6.42l7.81-6.72Zm37.88-26-6.46-5.87-6.46,6.89,6,6.63ZM393.78,388l-8.07,6.71,6.43,5.81,6.87-6.66ZM417.49,488.8l6.77,7.28,6.6-7.27-6.59-6.28Zm63.5-63,6.28,6.58,7.28-6.57-7.31-6.76ZM461.9,394.56l-7-6.09-4.23,4.76c1.95,2.47,3.67,4.63,5.34,6.73Zm-64,63.56-5.65-6.5-5.2,4.76,6.2,6.77Zm31.85-64.32-5.52-6.09-6.13,6.46,5.88,5.36Zm-31.45,32-5.61-6.07-6.1,6.43,5.87,5.22Zm58.5,27c-2,1.77-3.85,3.48-5.73,5.21l4,4.32,6.3-5.38Zm-27.68,4.84-4.68-4.42L419,457.35l5.24,5.62Zm22.46-32.6,4.51,5.64,4.31-4.06-4.36-6.4Zm-32.48.56,4.74,4.43,4.86-4.59-4.52-4.76Z"/><path d="M315.2,364.41a14.72,14.72,0,1,1,.14,29.43,14.72,14.72,0,0,1-.14-29.43Z"/><path d="M377.65,302.14a14.5,14.5,0,0,1,14.62,14.49,14.7,14.7,0,1,1-29.4-.13A14.58,14.58,0,0,1,377.65,302.14Z"/><path d="M533.23,362.43a14.36,14.36,0,0,1-14.35-14.67,14.53,14.53,0,1,1,29,.4A14.25,14.25,0,0,1,533.23,362.43Z"/><path d="M360.9,534.93a14.27,14.27,0,0,1-14.45,14.54,14.53,14.53,0,1,1,14.45-14.54Z"/><path d="M579.09,410.39a14.45,14.45,0,0,1-14.6,14.49c-7.85-.06-14.85-7-14.74-14.67s7.11-14.51,14.92-14.49A14.45,14.45,0,0,1,579.09,410.39Z"/><path d="M408.67,580.63A14.45,14.45,0,0,1,394.18,566c.07-7.84,7-14.84,14.67-14.74,7.79.1,14.49,7,14.45,14.91A14.37,14.37,0,0,1,408.67,580.63Z"/><path d="M516.76,316.61A14.47,14.47,0,1,1,502,302.36,14.49,14.49,0,0,1,516.76,316.61Z"/><path d="M315.4,489.36a14.47,14.47,0,1,1-14.59,14.44A14.4,14.4,0,0,1,315.4,489.36Z"/><path d="M579,472.52a14.48,14.48,0,0,1-14.41,14.66A14.8,14.8,0,0,1,550,472.52a14.58,14.58,0,0,1,14.31-14.32A14.3,14.3,0,0,1,579,472.52Z"/><path d="M470.93,580.54a14.24,14.24,0,0,1-14.26-14.7A14.57,14.57,0,0,1,471,551.59a14.82,14.82,0,0,1,14.61,14.6A14.52,14.52,0,0,1,470.93,580.54Z"/><path d="M547.77,535a14.35,14.35,0,0,1-28.7.17,14.35,14.35,0,1,1,28.7-.17Z"/><path d="M550.49,378.91A13.88,13.88,0,0,1,565,365a14.17,14.17,0,1,1-14.48,13.91Z"/><path d="M378,552a14.16,14.16,0,1,1-14.57,13.82A13.88,13.88,0,0,1,378,552Z"/><path d="M346.53,331a14.21,14.21,0,0,1-.18-28.41,14.21,14.21,0,0,1,.18,28.41Z"/><path d="M329.45,347.89a14.21,14.21,0,1,1-14.54-14A14.21,14.21,0,0,1,329.45,347.89Z"/><path d="M298,441.63a13.76,13.76,0,0,1-14.06,13.76,14,14,0,0,1-13.85-14.07,14.15,14.15,0,0,1,14.16-13.85A14,14,0,0,1,298,441.63Z"/><path d="M440.09,271.64a14,14,0,0,1,13.76,14.15,13.8,13.8,0,0,1-14.09,13.74,14,14,0,0,1-13.84-14.07A14.15,14.15,0,0,1,440.09,271.64Z"/><path d="M564.72,489.91a13.9,13.9,0,1,1-.22,27.8,13.9,13.9,0,1,1,.22-27.8Z"/><path d="M516.16,566.41a13.9,13.9,0,1,1-27.79-.51,13.9,13.9,0,1,1,27.79.51Z"/><path d="M297.93,472.71a13.86,13.86,0,0,1-27.72.12,13.86,13.86,0,1,1,27.72-.12Z"/><path d="M284.07,424.22a13.9,13.9,0,1,1,13.85-14A14,14,0,0,1,284.07,424.22Z"/><path d="M422.67,285.68a13.89,13.89,0,1,1-14-13.94A13.88,13.88,0,0,1,422.67,285.68Z"/><path d="M484.94,285.68a13.74,13.74,0,0,1-14,13.79,13.87,13.87,0,1,1,14-13.79Z"/><path d="M533.61,330.56a13.78,13.78,0,1,1,13.64-14.06A13.55,13.55,0,0,1,533.61,330.56Z"/><path d="M329,535.05a13.78,13.78,0,1,1-13.83-13.86A13.61,13.61,0,0,1,329,535.05Z"/><path d="M360.05,566a13.65,13.65,0,0,1-27.29.45,13.65,13.65,0,1,1,27.29-.45Z"/><path d="M578.29,348.26a13.71,13.71,0,0,1-27.41-.35,13.71,13.71,0,1,1,27.41.35Z"/><path d="M270.48,378.56a13.61,13.61,0,0,1,14.06-13.14,13.7,13.7,0,1,1-1.14,27.38A13.53,13.53,0,0,1,270.48,378.56Z"/><path d="M377.79,299.33A13.81,13.81,0,0,1,363.87,286a13.7,13.7,0,1,1,13.92,13.37Z"/><path d="M515.73,285.37a13.45,13.45,0,1,1-26.9.53,13.45,13.45,0,0,1,26.9-.53Z"/><path d="M297.56,504a13.56,13.56,0,0,1-13.93,13.22,13.45,13.45,0,0,1,.93-26.88A13.51,13.51,0,0,1,297.56,504Z"/><path d="M439.81,610.79a13.24,13.24,0,0,1-13.29-13.36,13.4,13.4,0,0,1,13.55-13.68,13.72,13.72,0,0,1,13.43,13.44A13.56,13.56,0,0,1,439.81,610.79Z"/><path d="M595.59,428.06a13.24,13.24,0,0,1,13.65,13,13.59,13.59,0,0,1-13.3,14,13.81,13.81,0,0,1-13.75-13.66A13.45,13.45,0,0,1,595.59,428.06Z"/><path d="M408.2,610.62a13.21,13.21,0,0,1-12.86-13.75,13.42,13.42,0,0,1,13.75-13,13.24,13.24,0,0,1,13,14.1A13.08,13.08,0,0,1,408.2,610.62Z"/><path d="M546.79,566.71a13.28,13.28,0,0,1-13.91,12.73,13.32,13.32,0,1,1,13.91-12.73Z"/><path d="M577.9,534.73a13.31,13.31,0,1,1-26.61.49,13.31,13.31,0,1,1,26.61-.49Z"/><path d="M609.1,410.47a13.36,13.36,0,0,1-26.71-.08,13.36,13.36,0,1,1,26.71.08Z"/><path d="M315.12,330.21a13.39,13.39,0,1,1,13.55-13.15A13.56,13.56,0,0,1,315.12,330.21Z"/><path d="M595.52,459.39A13.24,13.24,0,1,1,582.63,473,13.1,13.1,0,0,1,595.52,459.39Z"/><path d="M471.25,610.51A13.18,13.18,0,1,1,484.32,597,13.1,13.1,0,0,1,471.25,610.51Z"/><path d="M608.92,378.93a13.12,13.12,0,1,1-26.23.43,13.12,13.12,0,0,1,26.23-.43Z"/><path d="M346.16,272.44a13.33,13.33,0,0,1,13.48,13.17,13.22,13.22,0,0,1-26.44,0A13.31,13.31,0,0,1,346.16,272.44Z"/><path d="M377.52,610.46a12.9,12.9,0,0,1-13-13.47,12.76,12.76,0,0,1,13.15-12.76,13.12,13.12,0,1,1-.17,26.23Z"/><path d="M297.21,348a13.17,13.17,0,0,1-12.89,13.21A13.24,13.24,0,1,1,297.21,348Z"/><path d="M315.24,553.21a12.72,12.72,0,0,1,12.94,12.94,13,13,0,0,1-12.92,13.07,13.16,13.16,0,0,1-13-13.05A12.9,12.9,0,0,1,315.24,553.21Z"/><path d="M564.5,329.71a12.74,12.74,0,0,1-12.84-13,12.91,12.91,0,0,1,13.06-12.89,13.16,13.16,0,0,1,13,13.12A13,13,0,0,1,564.5,329.71Z"/><path d="M595.79,516.76a13,13,0,1,1,13-13A12.91,12.91,0,0,1,595.79,516.76Z"/><path d="M502.29,584.32a13,13,0,0,1,0,26,13,13,0,1,1,0-26Z"/><path d="M253,454.32a12.87,12.87,0,1,1,12.74-12.7A13,13,0,0,1,253,454.32Z"/><path d="M452.78,254.52a12.87,12.87,0,0,1-25.73-.12,12.87,12.87,0,1,1,25.73.12Z"/><path d="M533.27,298.41a12.6,12.6,0,0,1-12.58-13.2,12.77,12.77,0,1,1,12.58,13.2Z"/><path d="M296.87,535.09A12.81,12.81,0,1,1,284,522.23,12.65,12.65,0,0,1,296.87,535.09Z"/><path d="M265.7,410.35a12.8,12.8,0,1,1-12.61-12.85A12.94,12.94,0,0,1,265.7,410.35Z"/><path d="M408.51,267.23a12.77,12.77,0,1,1,13.06-12.39A12.92,12.92,0,0,1,408.51,267.23Z"/><path d="M359,597.5a12.6,12.6,0,1,1-25.2-.37,12.6,12.6,0,1,1,25.2.37Z"/><path d="M595.58,335.35a12.6,12.6,0,1,1-12.51,12.8A12.69,12.69,0,0,1,595.58,335.35Z"/><path d="M252.9,460.09a12.6,12.6,0,0,1,12.74,12.53,12.69,12.69,0,0,1-25.38.07A12.48,12.48,0,0,1,252.9,460.09Z"/><path d="M483.76,254.53a12.78,12.78,0,0,1-12.71,12.65,12.69,12.69,0,1,1,12.71-12.65Z"/><path d="M564.53,578.61A12.46,12.46,0,0,1,552,566a12.77,12.77,0,0,1,12.92-12.43,12.52,12.52,0,0,1,12.18,12.55A12.22,12.22,0,0,1,564.53,578.61Z"/><path d="M327.76,285.82a12.49,12.49,0,1,1-25-.37,12.49,12.49,0,0,1,25,.37Z"/><path d="M284,329.29a12.49,12.49,0,0,1,.21-25,12.49,12.49,0,1,1-.21,25Z"/><path d="M545.89,597.25a12.35,12.35,0,0,1-12.26,12.51,12.44,12.44,0,1,1-.14-24.88A12.35,12.35,0,0,1,545.89,597.25Z"/><path d="M390,254.42a12.33,12.33,0,0,1-12.24,12.52,12.58,12.58,0,0,1-12.69-12.69,12.38,12.38,0,0,1,12.59-12.18A12.17,12.17,0,0,1,390,254.42Z"/><path d="M252.65,391.54A12.19,12.19,0,0,1,240.53,379,12.36,12.36,0,0,1,253,366.62a12.64,12.64,0,0,1,12.48,12.91A12.39,12.39,0,0,1,252.65,391.54Z"/><path d="M595.86,522.46a12.54,12.54,0,0,1,12.37,12.47,12.44,12.44,0,1,1-12.37-12.47Z"/><path d="M502.42,242.13a12.34,12.34,0,1,1-12.54,12.18A12.36,12.36,0,0,1,502.42,242.13Z"/><path d="M265.31,504a12.44,12.44,0,0,1-12.6,12.21A12.41,12.41,0,1,1,265.31,504Z"/><path d="M639.18,441.32a12.24,12.24,0,1,1-12.5-12.1A12,12,0,0,1,639.18,441.32Z"/><path d="M440.08,640.69a12.23,12.23,0,1,1,12.05-12.48A12,12,0,0,1,440.08,640.69Z"/><path d="M408.6,640.72A12.24,12.24,0,1,1,421,628.53,12,12,0,0,1,408.6,640.72Z"/><path d="M626.88,422.54a12.23,12.23,0,1,1,.38-24.45,12.23,12.23,0,0,1-.38,24.45Z"/><path d="M627,460.4a12.25,12.25,0,1,1-12.26,11.9A12.09,12.09,0,0,1,627,460.4Z"/><path d="M471,640.59a12.05,12.05,0,0,1-12.13-12,12.25,12.25,0,1,1,12.13,12Z"/><path d="M240.79,348a12.12,12.12,0,0,1,12-12.13A12,12,0,0,1,265,347.75a12.12,12.12,0,0,1-12.2,12.42A12.27,12.27,0,0,1,240.79,348Z"/><path d="M346.6,266.52a12,12,0,0,1-12.31-11.77,12.17,12.17,0,1,1,12.31,11.77Z"/><path d="M284.34,554.11a11.82,11.82,0,0,1,11.8,12.2,12,12,0,0,1-12.08,12,12.29,12.29,0,0,1-12.15-12.55A12.08,12.08,0,0,1,284.34,554.11Z"/><path d="M576.77,285.81a12,12,0,0,1-12.22,11.87,11.79,11.79,0,0,1-12-12,12.06,12.06,0,0,1,12.37-12.22A12.3,12.3,0,0,1,576.77,285.81Z"/><path d="M327.29,597.3a12,12,0,1,1-12.06-12A12,12,0,0,1,327.29,597.3Z"/><path d="M595.79,328.82a12.06,12.06,0,0,1,0-24.12,12.11,12.11,0,0,1,12,12.08A12,12,0,0,1,595.79,328.82Z"/><path d="M377.47,640.48a11.8,11.8,0,0,1-11.85-12.14,12,12,0,0,1,12.12-11.94,12.21,12.21,0,0,1,11.95,12.22A12,12,0,0,1,377.47,640.48Z"/><path d="M638.94,379.14a12,12,0,0,1-12,12.09,12.19,12.19,0,0,1-12.07-12.08,12,12,0,0,1,12.07-12A11.81,11.81,0,0,1,638.94,379.14Z"/><path d="M627.12,515.61a11.81,11.81,0,1,1,11.71-11.72A11.71,11.71,0,0,1,627.12,515.61Z"/><path d="M514.06,628.49a11.8,11.8,0,1,1-23.59,0,11.8,11.8,0,1,1,23.59,0Z"/><path d="M595.93,577.92a11.78,11.78,0,1,1,11.71-11.81A11.8,11.8,0,0,1,595.93,577.92Z"/><path d="M545.17,254.57a11.74,11.74,0,1,1-11.5-11.93A11.75,11.75,0,0,1,545.17,254.57Z"/><path d="M253.56,523.25a11.73,11.73,0,1,1-12.46,11.46A11.77,11.77,0,0,1,253.56,523.25Z"/><path d="M552.83,597.49a11.79,11.79,0,1,1,11.83,11.69A11.85,11.85,0,0,1,552.83,597.49Z"/><path d="M233.5,441.57a11.76,11.76,0,1,1-11.65-11.86A11.91,11.91,0,0,1,233.5,441.57Z"/><path d="M451.68,223.46a11.75,11.75,0,1,1-11.58-11.94A11.93,11.93,0,0,1,451.68,223.46Z"/><path d="M295.8,285.7A11.76,11.76,0,0,1,284,297.35a11.56,11.56,0,0,1-11.55-11.77A11.35,11.35,0,0,1,284.16,274,11.55,11.55,0,0,1,295.8,285.7Z"/><path d="M221.87,398.64a11.66,11.66,0,1,1-11.81,11.66A11.78,11.78,0,0,1,221.87,398.64Z"/><path d="M397.08,223a12,12,0,0,1,12.13-11.37A11.67,11.67,0,1,1,397.08,223Z"/><path d="M346.63,616.93a11.34,11.34,0,0,1,11.31,11.91,11.51,11.51,0,0,1-11.48,11.32,11.72,11.72,0,0,1-11.65-11.75A11.52,11.52,0,0,1,346.63,616.93Z"/><path d="M627.13,336.34a11.74,11.74,0,0,1,11.47,11.92,11.5,11.5,0,0,1-12.07,11.22,11.3,11.3,0,0,1-11.13-11.57A11.49,11.49,0,0,1,627.13,336.34Z"/><path d="M253,328.31a11.51,11.51,0,0,1-.38-23,11.51,11.51,0,1,1,.38,23Z"/><path d="M326.77,254.41a11.5,11.5,0,0,1-23,.37,11.5,11.5,0,1,1,23-.37Z"/><path d="M470.9,234.75a11.27,11.27,0,0,1-11.25-11.55,11.55,11.55,0,0,1,11.43-11.5,11.82,11.82,0,0,1,11.62,11.92A11.55,11.55,0,0,1,470.9,234.75Z"/><path d="M233.2,472.49A11.52,11.52,0,0,1,222,484.23a11.76,11.76,0,0,1-11.86-11.66,11.52,11.52,0,0,1,11.54-11.38A11.27,11.27,0,0,1,233.2,472.49Z"/><path d="M533.34,617.15a11.17,11.17,0,0,1,11.5,11.25,11.35,11.35,0,0,1-11.3,11.53A11.52,11.52,0,0,1,522,628.58,11.31,11.31,0,0,1,533.34,617.15Z"/><path d="M627.17,546.38a11.14,11.14,0,0,1-11.55-11.18,11.32,11.32,0,0,1,11.11-11.71,11.52,11.52,0,0,1,11.65,11.27A11.35,11.35,0,0,1,627.17,546.38Z"/><path d="M221.65,390.44a11.13,11.13,0,0,1-11.18-11.53,11.28,11.28,0,1,1,22.55.21A11.09,11.09,0,0,1,221.65,390.44Z"/><path d="M388.9,223.11a11.11,11.11,0,0,1-11.25,11.45,11.27,11.27,0,1,1-.37-22.54A11.15,11.15,0,0,1,388.9,223.11Z"/><path d="M233,503.56a11.24,11.24,0,0,1-11.2,11.56,11.1,11.1,0,0,1-11.17-11.05,11.19,11.19,0,1,1,22.37-.51Z"/><path d="M595.87,296.86A11.25,11.25,0,1,1,607,285.27,11.07,11.07,0,0,1,595.87,296.86Z"/><path d="M502.05,234.51a11.19,11.19,0,1,1,.45-22.37,11.12,11.12,0,0,1,11.08,11.13A11.28,11.28,0,0,1,502.05,234.51Z"/><path d="M284.05,608.51a11.19,11.19,0,1,1,11.28-10.91A11.13,11.13,0,0,1,284.05,608.51Z"/><path d="M658.08,452.59a11.14,11.14,0,1,1,.31-22.28,11.14,11.14,0,0,1-.31,22.28Z"/><path d="M428.77,659.8a11.17,11.17,0,0,1,10.89-11.33,11.18,11.18,0,1,1-10.89,11.33Z"/><path d="M419.9,659.64a11.14,11.14,0,1,1-11-11.19A11.06,11.06,0,0,1,419.9,659.64Z"/><path d="M657.87,421.44a11.14,11.14,0,1,1,11.4-10.77A11.16,11.16,0,0,1,657.87,421.44Z"/><path d="M315.32,639.52a11.13,11.13,0,0,1-11.25-11,11.3,11.3,0,0,1,11.11-11.17,11.15,11.15,0,0,1,11.19,11A11,11,0,0,1,315.32,639.52Z"/><path d="M638,317a11,11,0,0,1-11.2,10.95,11.15,11.15,0,0,1-10.93-11.3,11.3,11.3,0,0,1,11.28-11A11.1,11.1,0,0,1,638,317Z"/><path d="M241.77,565.9a10.92,10.92,0,0,1,11.28-10.81,10.8,10.8,0,0,1,11,11.09,11.12,11.12,0,1,1-22.24-.28Z"/><path d="M575.79,254.59a11,11,0,0,1-11.17,11,10.81,10.81,0,0,1-11.09-11,10.94,10.94,0,0,1,11.35-11.26A11.09,11.09,0,0,1,575.79,254.59Z"/><path d="M669.13,472.57a10.74,10.74,0,0,1-11,11.06A11,11,0,0,1,647,472.69,11.27,11.27,0,0,1,658,461.52,11,11,0,0,1,669.13,472.57Z"/><path d="M482.08,659.59a10.75,10.75,0,0,1-10.93,11.09,11.07,11.07,0,0,1-11.18-11A11.29,11.29,0,0,1,471,648.5,11,11,0,0,1,482.08,659.59Z"/><path d="M210.7,348.05a11.08,11.08,0,0,1,22.15-.14,11.24,11.24,0,0,1-11,11.21A11.11,11.11,0,0,1,210.7,348.05Z"/><path d="M346.27,212.23a11.08,11.08,0,1,1,.34,22.15,11.08,11.08,0,0,1-.34-22.15Z"/><path d="M584.8,597.23A10.86,10.86,0,0,1,596,586.34a11,11,0,1,1-11.18,10.89Z"/><path d="M669,379.24a10.92,10.92,0,0,1-10.7,10.89,11.2,11.2,0,0,1-11.13-11.08,10.94,10.94,0,0,1,11.32-10.77A10.67,10.67,0,0,1,669,379.24Z"/><path d="M377.57,670.5a10.68,10.68,0,0,1-10.84-11.13,11,11,0,0,1,10.91-10.69,11.2,11.2,0,0,1,10.95,10.76A10.93,10.93,0,0,1,377.57,670.5Z"/><path d="M294.9,254.37a10.81,10.81,0,0,1-21.61.43,10.81,10.81,0,1,1,21.61-.43Z"/><path d="M252.81,296.44a10.82,10.82,0,1,1,11-10.57A10.82,10.82,0,0,1,252.81,296.44Z"/><path d="M637.78,566.37a11,11,0,0,1-10.94,10.69A11.15,11.15,0,0,1,616,566.18a11,11,0,0,1,11.25-10.87A10.83,10.83,0,0,1,637.78,566.37Z"/><path d="M575.51,628.52a11,11,0,0,1-10.81,10.8,10.81,10.81,0,0,1-10.92-10.62,11,11,0,0,1,11-11.12A11.13,11.13,0,0,1,575.51,628.52Z"/><path d="M221.76,545.74a10.77,10.77,0,1,1,10.87-10.65A10.75,10.75,0,0,1,221.76,545.74Z"/><path d="M544.18,223.44a10.75,10.75,0,1,1-10.48-11A10.74,10.74,0,0,1,544.18,223.44Z"/><path d="M658.24,493.16a10.67,10.67,0,1,1-10.8,10.54A10.41,10.41,0,0,1,658.24,493.16Z"/><path d="M491.63,659.69A10.45,10.45,0,0,1,502.24,649a10.72,10.72,0,1,1-10.61,10.74Z"/><path d="M273.67,628.35a10.23,10.23,0,0,1,10.57-10.29,10.47,10.47,0,0,1,10.37,10.58A10.69,10.69,0,0,1,284,639,10.46,10.46,0,0,1,273.67,628.35Z"/><path d="M315,233.73a10.45,10.45,0,1,1,10.76-10.18A10.37,10.37,0,0,1,315,233.73Z"/><path d="M232.18,317A10.45,10.45,0,1,1,222,306.33,10.44,10.44,0,0,1,232.18,317Z"/><path d="M616.54,285.62A10.19,10.19,0,0,1,627,275.21a10.45,10.45,0,0,1,10.51,10.45,10.66,10.66,0,0,1-10.54,10.5A10.43,10.43,0,0,1,616.54,285.62Z"/><path d="M647.7,348a10.4,10.4,0,0,1,10.41-10.52,10.49,10.49,0,1,1,0,21A10.32,10.32,0,0,1,647.7,348Z"/><path d="M201,441.3A10.38,10.38,0,0,1,190.74,452,10.75,10.75,0,0,1,180,441.65a10.39,10.39,0,0,1,10.39-10.54A10,10,0,0,1,201,441.3Z"/><path d="M346.45,649.24a10.29,10.29,0,0,1,10.44,10.45,10.48,10.48,0,1,1-21,0A10.41,10.41,0,0,1,346.45,649.24Z"/><path d="M439.83,202.5A10,10,0,0,1,429.57,192a10.42,10.42,0,0,1,10.48-10.44,10.75,10.75,0,0,1,10.42,10.66A10.4,10.4,0,0,1,439.83,202.5Z"/><path d="M419.17,192.15a10.13,10.13,0,0,1-10.45,10.35,10.39,10.39,0,0,1-10.5-10.42,10.78,10.78,0,0,1,10.57-10.53A10.53,10.53,0,0,1,419.17,192.15Z"/><path d="M647.77,534.92a10.44,10.44,0,0,1,10.53-10.4,10.44,10.44,0,0,1-.11,20.87A10.31,10.31,0,0,1,647.77,534.92Z"/><path d="M190.52,420.73A10.52,10.52,0,0,1,180,410.26a10.77,10.77,0,0,1,10.6-10.49A10.37,10.37,0,0,1,201,410.35,10.17,10.17,0,0,1,190.52,420.73Z"/><path d="M543.84,659.64a10.54,10.54,0,0,1-10.51,10.48A10.66,10.66,0,0,1,523,659.43a10.46,10.46,0,0,1,10.32-10.12A10.29,10.29,0,0,1,543.84,659.64Z"/><path d="M190.6,462.29a10.23,10.23,0,0,1,10.33,10.5,10.4,10.4,0,0,1-10.12,10.32,10.71,10.71,0,0,1-10.71-10.36A10.48,10.48,0,0,1,190.6,462.29Z"/><path d="M471.11,202.47A10.2,10.2,0,0,1,460.75,192a10.43,10.43,0,0,1,10.11-10.34A10.65,10.65,0,0,1,481.57,192,10.4,10.4,0,0,1,471.11,202.47Z"/><path d="M596,244.06a10.18,10.18,0,0,1,10.18,10.63A10.49,10.49,0,0,1,595.54,265a10.62,10.62,0,0,1-10.27-10.76A10.35,10.35,0,0,1,596,244.06Z"/><path d="M253.06,607.73a10.19,10.19,0,0,1-10.54-10.29,10.34,10.34,0,0,1,10.28-10.63,10.62,10.62,0,0,1,10.65,10.37A10.46,10.46,0,0,1,253.06,607.73Z"/><path d="M190.32,389.4a10.28,10.28,0,1,1,10.57-10.26A10.26,10.26,0,0,1,190.32,389.4Z"/><path d="M387.87,192a10.29,10.29,0,1,1-10.13-10.23A10.26,10.26,0,0,1,387.87,192Z"/><path d="M564.45,233.55a10.26,10.26,0,1,1,10.43-9.84A10.08,10.08,0,0,1,564.45,233.55Z"/><path d="M221.65,576.43A10.27,10.27,0,1,1,232,566.51,10.13,10.13,0,0,1,221.65,576.43Z"/><path d="M190.39,493.63a10.18,10.18,0,0,1,.42,20.36,10.18,10.18,0,0,1-.42-20.36Z"/><path d="M502.1,182.07A10.1,10.1,0,0,1,512.47,192a10.2,10.2,0,0,1-20.39.34A10.1,10.1,0,0,1,502.1,182.07Z"/><path d="M595.76,638.56a9.86,9.86,0,0,1-10-10.11,10.09,10.09,0,1,1,10,10.11Z"/><path d="M626.76,587.26a10.09,10.09,0,1,1,.36,20.18,10.1,10.1,0,0,1-10.3-9.94A10,10,0,0,1,626.76,587.26Z"/><path d="M242.85,254a10,10,0,1,1,20.06,1.22,9.92,9.92,0,0,1-10.36,9.28A10,10,0,0,1,242.85,254Z"/><path d="M668.06,316.67a9.82,9.82,0,0,1-10,10.16A10.14,10.14,0,0,1,648,316.67a10.33,10.33,0,0,1,9.85-10A10,10,0,0,1,668.06,316.67Z"/><path d="M315.39,669.61a10,10,0,0,1-10.23-10,10.31,10.31,0,0,1,10.2-10.13,10.12,10.12,0,0,1,9.91,9.85A9.8,9.8,0,0,1,315.39,669.61Z"/><path d="M440.07,680.85a10,10,0,1,1-10.14,9.57A10.05,10.05,0,0,1,440.07,680.85Z"/><path d="M689.06,451.41a10,10,0,1,1,10.16-10A9.85,9.85,0,0,1,689.06,451.41Z"/><path d="M293.91,223.34a9.89,9.89,0,0,1-9.74,9.89,9.91,9.91,0,1,1,.09-19.81A9.73,9.73,0,0,1,293.91,223.34Z"/><path d="M221.61,295.45a9.73,9.73,0,0,1-9.73-9.85,9.9,9.9,0,1,1,19.79.29A9.85,9.85,0,0,1,221.61,295.45Z"/><path d="M190.54,338.17a9.85,9.85,0,0,1,10,9.63,10.07,10.07,0,0,1-9.66,10.06,9.85,9.85,0,0,1-10.14-10A9.65,9.65,0,0,1,190.54,338.17Z"/><path d="M346.61,182.28a9.83,9.83,0,0,1,9.71,9.9A10,10,0,0,1,346,202.06a9.84,9.84,0,0,1-9.36-10.24A9.67,9.67,0,0,1,346.61,182.28Z"/><path d="M699.09,410.07a9.81,9.81,0,1,1-9.92-9.66A9.75,9.75,0,0,1,699.09,410.07Z"/><path d="M418.66,691A9.9,9.9,0,1,1,409,681,9.76,9.76,0,0,1,418.66,691Z"/><path d="M480.94,690.88a9.69,9.69,0,0,1-9.77,9.76,9.82,9.82,0,1,1,.11-19.64A9.71,9.71,0,0,1,480.94,690.88Z"/><path d="M689.09,482.48a9.68,9.68,0,0,1-9.62-9.92,9.82,9.82,0,1,1,19.62.4A9.66,9.66,0,0,1,689.09,482.48Z"/><path d="M377.67,681.11a9.72,9.72,0,1,1-.16,19.43,9.72,9.72,0,1,1,.16-19.43Z"/><path d="M699,379.34a9.73,9.73,0,1,1-9.51-10A9.73,9.73,0,0,1,699,379.34Z"/><path d="M190.69,525.25a9.74,9.74,0,1,1-9.91,9.62A9.67,9.67,0,0,1,190.69,525.25Z"/><path d="M564.8,669.43a9.78,9.78,0,1,1-.39-19.55,9.78,9.78,0,1,1,.39,19.55Z"/><path d="M667.89,566a9.91,9.91,0,0,1-9.65,10,9.83,9.83,0,1,1,9.65-10Z"/><path d="M523.71,191.89a9.74,9.74,0,1,1,9.49,10A9.67,9.67,0,0,1,523.71,191.89Z"/><path d="M627,264.22a9.76,9.76,0,1,1,9.74-9.9A9.85,9.85,0,0,1,627,264.22Z"/><path d="M262.67,628.52a9.76,9.76,0,1,1-9.84-9.79A9.89,9.89,0,0,1,262.67,628.52Z"/><path d="M231.41,597.32a9.68,9.68,0,0,1-19.35,0,9.68,9.68,0,0,1,19.35,0Z"/><path d="M586.11,223a9.66,9.66,0,1,1,19.3.63,9.66,9.66,0,1,1-19.3-.63Z"/><path d="M698.93,503.82a9.65,9.65,0,1,1-9.9-9.66A9.46,9.46,0,0,1,698.93,503.82Z"/><path d="M511.91,690.67a9.65,9.65,0,1,1-10-9.48A9.46,9.46,0,0,1,511.91,690.67Z"/><path d="M200.06,316.57a9.45,9.45,0,0,1-9.26,9.77A9.72,9.72,0,0,1,181,317a9.62,9.62,0,0,1,9.36-9.74A9.41,9.41,0,0,1,200.06,316.57Z"/><path d="M315.18,182.54a9.69,9.69,0,0,1,9.63,9.49,9.53,9.53,0,0,1-19.06.16A9.57,9.57,0,0,1,315.18,182.54Z"/><path d="M355.85,690.79a9.44,9.44,0,0,1-9.51,9.51,9.63,9.63,0,0,1-9.42-9.68,9.52,9.52,0,0,1,9.34-9.22A9.35,9.35,0,0,1,355.85,690.79Z"/><path d="M698.75,348.07a9.45,9.45,0,1,1-18.9-.46,9.45,9.45,0,0,1,18.9.46Z"/><path d="M667.61,285.66a9.67,9.67,0,0,1-9.64,9.49,9.56,9.56,0,0,1-9.28-9.29,9.3,9.3,0,0,1,9.33-9.63A9.44,9.44,0,0,1,667.61,285.66Z"/><path d="M284.21,669.15a9.43,9.43,0,0,1-9.51-9.5,9.27,9.27,0,0,1,9-9.4,9.53,9.53,0,0,1,9.88,9.17A9.69,9.69,0,0,1,284.21,669.15Z"/><path d="M698.65,534.9a9.35,9.35,0,1,1-9.32-9.24A9.53,9.53,0,0,1,698.65,534.9Z"/><path d="M439.83,151.54a9.4,9.4,0,0,1,.2,18.79,9.22,9.22,0,0,1-9.37-9A9.34,9.34,0,0,1,439.83,151.54Z"/><path d="M168.78,441.55a9.39,9.39,0,1,1-9-9.36A9.2,9.2,0,0,1,168.78,441.55Z"/><path d="M168.73,410.31a9.33,9.33,0,1,1-9.19-9.18A9.21,9.21,0,0,1,168.73,410.31Z"/><path d="M418,160.72a9.2,9.2,0,1,1-9.31-9.1A9.24,9.24,0,0,1,418,160.72Z"/><path d="M542.72,690.75a9.31,9.31,0,1,1-18.61-.1,9.59,9.59,0,0,1,9.38-9.17A9.44,9.44,0,0,1,542.72,690.75Z"/><path d="M636.14,628.46a9.2,9.2,0,1,1-9.11-9.19A9,9,0,0,1,636.14,628.46Z"/><path d="M159.31,481.83a9.27,9.27,0,0,1-9.13-9.3,9.25,9.25,0,1,1,9.13,9.3Z"/><path d="M480.29,161.09a9.2,9.2,0,1,1-9.06-9.37A9.36,9.36,0,0,1,480.29,161.09Z"/><path d="M658.26,588.17a9.15,9.15,0,1,1-.3,18.3,9.15,9.15,0,1,1,.3-18.3Z"/><path d="M595.56,650.45a9.19,9.19,0,0,1,9.37,9,9.15,9.15,0,1,1-18.3.44A9.2,9.2,0,0,1,595.56,650.45Z"/><path d="M221.84,245.29a9.06,9.06,0,0,1,9,9.25,9.13,9.13,0,1,1-9-9.25Z"/><path d="M262,223.32a9.14,9.14,0,1,1-9.1-9.14A9,9,0,0,1,262,223.32Z"/><path d="M199.78,565.89a9.25,9.25,0,0,1-8.92,9.46,9.07,9.07,0,0,1-9.37-8.92,8.88,8.88,0,0,1,8.84-9.4A9.12,9.12,0,0,1,199.78,565.89Z"/><path d="M573.81,192.17a9.23,9.23,0,0,1-9.23,9.14,9.08,9.08,0,0,1-9.09-9.22,8.84,8.84,0,0,1,9.17-9A9,9,0,0,1,573.81,192.17Z"/><path d="M386.72,161a9.29,9.29,0,0,1-9.3,9.1,9.15,9.15,0,0,1,.13-18.3A9.19,9.19,0,0,1,386.72,161Z"/><path d="M159.33,388.26a9.26,9.26,0,0,1-9.06-9.33,9.16,9.16,0,0,1,18.32.18A9.3,9.3,0,0,1,159.33,388.26Z"/><path d="M698.24,316.79a8.91,8.91,0,0,1-9.21,9,9.09,9.09,0,0,1-8.81-9,9.2,9.2,0,0,1,8.8-9.06A9,9,0,0,1,698.24,316.79Z"/><path d="M284.06,183.25A8.75,8.75,0,0,1,293,192a8.94,8.94,0,0,1-9.11,9.13,9.26,9.26,0,0,1-8.76-9.09A9,9,0,0,1,284.06,183.25Z"/><path d="M168.48,504a9,9,0,0,1-9.5,8.73,8.79,8.79,0,0,1-8.55-9.12,9.11,9.11,0,0,1,8.93-8.87A9.26,9.26,0,0,1,168.48,504Z"/><path d="M199.58,285.66a9,9,0,0,1-8.9,8.83,8.76,8.76,0,0,1-9-8.65,9,9,0,0,1,9.06-9.21A9.25,9.25,0,0,1,199.58,285.66Z"/><path d="M315.28,681.75a9.12,9.12,0,0,1,9,8.84,9,9,0,0,1-18,.45A9.17,9.17,0,0,1,315.28,681.75Z"/><path d="M502.49,152a8.82,8.82,0,0,1,8.71,9.46A9,9,0,0,1,502,170a9.28,9.28,0,0,1-8.8-9.06A9,9,0,0,1,502.49,152Z"/><path d="M626.72,232.19a9.14,9.14,0,0,1-8.69-9.12,9,9,0,0,1,9.13-8.65,8.89,8.89,0,0,1-.44,17.77Z"/><path d="M221.62,619.57a9.16,9.16,0,0,1,9,8.78,8.89,8.89,0,0,1-17.77.27A9.05,9.05,0,0,1,221.62,619.57Z"/><path d="M439.75,713.2a8.79,8.79,0,0,1,9,8.61,8.91,8.91,0,0,1-8.67,9.05,9,9,0,0,1-9.09-8.68A8.89,8.89,0,0,1,439.75,713.2Z"/><path d="M729.28,441.31a8.81,8.81,0,1,1-9-8.74A9,9,0,0,1,729.28,441.31Z"/><path d="M564.56,682.06a8.74,8.74,0,1,1,.1,17.48,8.74,8.74,0,1,1-.1-17.48Z"/><path d="M698,566.32a8.72,8.72,0,0,1-8.89,8.72,8.81,8.81,0,0,1-8.58-9,8.74,8.74,0,1,1,17.47.33Z"/><path d="M159.34,356.79a8.66,8.66,0,0,1-8.69-9,8.75,8.75,0,1,1,8.69,9Z"/><path d="M346.25,152.21a8.75,8.75,0,1,1,.1,17.49,8.75,8.75,0,0,1-.1-17.49Z"/><path d="M408.85,730.68a8.71,8.71,0,0,1-.42-17.41,8.86,8.86,0,0,1,9.16,8.52A8.74,8.74,0,0,1,408.85,730.68Z"/><path d="M604.52,192a8.73,8.73,0,1,1-9.1-8.57A8.77,8.77,0,0,1,604.52,192Z"/><path d="M479.82,721.79a8.7,8.7,0,1,1-9.16-8.5A8.58,8.58,0,0,1,479.82,721.79Z"/><path d="M199.18,597.46a8.68,8.68,0,0,1-8.51,8.59,8.72,8.72,0,1,1,.28-17.44A8.68,8.68,0,0,1,199.18,597.46Z"/><path d="M720.38,419.13a8.82,8.82,0,1,1,8.77-8.88A8.84,8.84,0,0,1,720.38,419.13Z"/><path d="M666.85,254.37a8.73,8.73,0,1,1-9-8.68A8.77,8.77,0,0,1,666.85,254.37Z"/><path d="M261.69,659.8a8.77,8.77,0,1,1-8.75-8.85A8.77,8.77,0,0,1,261.69,659.8Z"/><path d="M720.23,464a8.52,8.52,0,0,1,8.91,8.21,8.71,8.71,0,1,1-17.4.43A8.5,8.5,0,0,1,720.23,464Z"/><path d="M168,535.23a8.62,8.62,0,0,1-17.23-.28,8.59,8.59,0,0,1,9-8.61A8.49,8.49,0,0,1,168,535.23Z"/><path d="M533.29,152.32a8.63,8.63,0,1,1-8.5,8.64A8.49,8.49,0,0,1,533.29,152.32Z"/><path d="M377.42,713.41a8.51,8.51,0,0,1,8.7,8.42,8.38,8.38,0,0,1-8.38,8.67,8.6,8.6,0,0,1-8.79-8.35A8.74,8.74,0,0,1,377.42,713.41Z"/><path d="M720.55,387.64a8.45,8.45,0,0,1-8.68-8.41,8.73,8.73,0,0,1,8.47-8.74A8.58,8.58,0,0,1,729,379,8.31,8.31,0,0,1,720.55,387.64Z"/><path d="M510.77,722a8.48,8.48,0,1,1-8.58-8.55A8.57,8.57,0,0,1,510.77,722Z"/><path d="M720.32,495.35a8.49,8.49,0,1,1,0,17,8.6,8.6,0,0,1-8.37-8.26A8.47,8.47,0,0,1,720.32,495.35Z"/><path d="M283.81,682.4a8.44,8.44,0,1,1,.56,16.87,8.44,8.44,0,0,1-.56-16.87Z"/><path d="M697.73,285.81a8.44,8.44,0,1,1-16.87-.35,8.44,8.44,0,0,1,16.87.35Z"/><path d="M712,347.87a8.67,8.67,0,0,1,8.81-8.35,8.52,8.52,0,0,1,8.07,8.53,8.42,8.42,0,0,1-8.73,8.32A8.64,8.64,0,0,1,712,347.87Z"/><path d="M354.85,721.91a8.41,8.41,0,0,1-8.6,8.46,8.51,8.51,0,0,1-8.29-8.31,8.45,8.45,0,1,1,16.89-.15Z"/><path d="M635.33,659.86a8.35,8.35,0,1,1-16.7-.4,8.22,8.22,0,0,1,8.78-8.17A8.32,8.32,0,0,1,635.33,659.86Z"/><path d="M666.59,628.34a8.52,8.52,0,0,1-8.06,8.53,8.31,8.31,0,0,1-8.78-8.22,8.2,8.2,0,0,1,8-8.48A8.41,8.41,0,0,1,666.59,628.34Z"/><path d="M323.69,161.15a8.51,8.51,0,0,1-8.89,8.2,8.39,8.39,0,0,1-7.93-8.6,8.53,8.53,0,0,1,8.34-8.27A8.62,8.62,0,0,1,323.69,161.15Z"/><path d="M159.3,308.4a8.42,8.42,0,0,1,8.53,8.54,8.44,8.44,0,1,1-8.53-8.54Z"/><path d="M230.05,223.11a8,8,0,0,1-7.87,8.5,8.2,8.2,0,0,1-8.78-8.14,8.3,8.3,0,0,1,7.92-8.55A8.19,8.19,0,0,1,230.05,223.11Z"/><path d="M198.87,254.46a8.13,8.13,0,0,1-8.16,8.26,8.26,8.26,0,1,1,0-16.52A8.13,8.13,0,0,1,198.87,254.46Z"/><path d="M728.69,534.86a8.33,8.33,0,0,1-8.11,8.39,8.28,8.28,0,1,1-.26-16.55A8.37,8.37,0,0,1,728.69,534.86Z"/><path d="M253.06,200.41a8.12,8.12,0,0,1-8.39-8,8.26,8.26,0,1,1,16.52-.28A8.17,8.17,0,0,1,253.06,200.41Z"/><path d="M533.34,730.25a8.4,8.4,0,0,1-8.19-8.37,8.28,8.28,0,1,1,16.56.22A8.39,8.39,0,0,1,533.34,730.25Z"/><path d="M689.45,589.15a8.16,8.16,0,1,1-8.45,8A8.25,8.25,0,0,1,689.45,589.15Z"/><path d="M595.83,699.12a8.29,8.29,0,1,1,8.11-8.35A8.29,8.29,0,0,1,595.83,699.12Z"/><path d="M572.83,161.12a8.24,8.24,0,0,1-8.36,8.09,8.14,8.14,0,0,1-8-8.41,8.24,8.24,0,0,1,8.33-8.14A8.35,8.35,0,0,1,572.83,161.12Z"/><path d="M167.68,566a8.28,8.28,0,1,1-8.45-8A8.2,8.2,0,0,1,167.68,566Z"/><path d="M439.73,121.61a8.17,8.17,0,1,1,.14,16.34,8.17,8.17,0,0,1-.14-16.34Z"/><path d="M416.89,129.67a8.11,8.11,0,0,1-16.21.47,8.11,8.11,0,1,1,16.21-.47Z"/><path d="M128.35,433.34a8.12,8.12,0,1,1-.48,16.22,8.12,8.12,0,0,1-7.81-8.08A8.22,8.22,0,0,1,128.35,433.34Z"/><path d="M136.44,410.41a8.19,8.19,0,0,1-16.38,0,8.19,8.19,0,1,1,16.38,0Z"/><path d="M479,130a7.78,7.78,0,0,1-8,7.78,8.11,8.11,0,0,1-8.1-8.26,8.31,8.31,0,0,1,8.08-7.87A8,8,0,0,1,479,130Z"/><path d="M128.31,464.51a8.13,8.13,0,0,1,7.94,7.94,7.82,7.82,0,0,1-8.09,8.15,8.08,8.08,0,0,1-8-7.8A8.39,8.39,0,0,1,128.31,464.51Z"/><path d="M377.84,137.67a7.71,7.71,0,0,1-8.14-7.55,7.9,7.9,0,0,1,7.93-8.33,8.09,8.09,0,0,1,8,7.88A7.91,7.91,0,0,1,377.84,137.67Z"/><path d="M198.64,628.48a8.21,8.21,0,0,1-7.93,8,7.82,7.82,0,0,1-8-7.72,7.94,7.94,0,0,1,8-8.25A8.24,8.24,0,0,1,198.64,628.48Z"/><path d="M626.85,200.18a8.24,8.24,0,0,1-7.91-8,7.94,7.94,0,0,1,8.33-8,7.82,7.82,0,0,1,7.62,8.12A8.15,8.15,0,0,1,626.85,200.18Z"/><path d="M128.3,371.23a7.67,7.67,0,0,1,7.82,7.86,8,8,0,0,1-7.71,8.08,8.1,8.1,0,0,1-8.16-8.21A7.88,7.88,0,0,1,128.3,371.23Z"/><path d="M728.49,317a8.07,8.07,0,0,1-8.15,7.69,8,8,0,1,1,.5-15.92A8.16,8.16,0,0,1,728.49,317Z"/><path d="M323.15,721.86a8,8,0,0,1-7.63,8.17,8.15,8.15,0,0,1-8.27-8.12,7.89,7.89,0,0,1,8-7.8A7.7,7.7,0,0,1,323.15,721.86Z"/><path d="M221.77,651.61a8.16,8.16,0,0,1,8,7.93,8,8,0,1,1-16,0A8.15,8.15,0,0,1,221.77,651.61Z"/><path d="M666,223.48a7.85,7.85,0,0,1-8,7.8,8,8,0,1,1,.38-16A7.82,7.82,0,0,1,666,223.48Z"/><path d="M159.47,293.47a7.64,7.64,0,0,1-7.86-7.79,7.81,7.81,0,0,1,7.75-8,7.92,7.92,0,0,1,7.91,7.86A7.77,7.77,0,0,1,159.47,293.47Z"/><path d="M291.93,161a7.79,7.79,0,0,1-7.92,7.8,8,8,0,0,1-7.85-8,7.8,7.8,0,0,1,8-7.73A7.65,7.65,0,0,1,291.93,161Z"/><path d="M136,504a7.83,7.83,0,0,1-15.65-.14,7.77,7.77,0,0,1,7.94-7.87A7.61,7.61,0,0,1,136,504Z"/><path d="M697,254.37a7.73,7.73,0,1,1-15.45-.08,7.73,7.73,0,1,1,15.45.08Z"/><path d="M252.79,683.11a7.73,7.73,0,0,1,.5,15.45,7.73,7.73,0,1,1-.5-15.45Z"/><path d="M572.44,722.13a7.82,7.82,0,1,1-15.63-.55,7.66,7.66,0,0,1,7.82-7.32A7.73,7.73,0,0,1,572.44,722.13Z"/><path d="M720.4,574a7.79,7.79,0,0,1-7.69-8,7.74,7.74,0,0,1,15.48.09A7.81,7.81,0,0,1,720.4,574Z"/><path d="M447.67,753a7.68,7.68,0,0,1-7.47,7.81,7.77,7.77,0,0,1-8-7.29,7.75,7.75,0,1,1,15.49-.52Z"/><path d="M510.11,129.79a7.69,7.69,0,0,1-8,7.79,7.56,7.56,0,0,1-7.68-7.54,7.82,7.82,0,1,1,15.64-.25Z"/><path d="M167.05,597.35a7.66,7.66,0,1,1-7.85-7.82A7.73,7.73,0,0,1,167.05,597.35Z"/><path d="M603.57,160.91A7.8,7.8,0,0,1,588,161a7.8,7.8,0,0,1,15.59-.06Z"/><path d="M354.14,129.93a7.48,7.48,0,0,1-7.61,7.56,7.56,7.56,0,0,1-7.86-7.84,7.74,7.74,0,1,1,15.47.28Z"/><path d="M136,347.82a7.72,7.72,0,0,1-15.44.27,7.72,7.72,0,1,1,15.44-.27Z"/><path d="M751.56,433.7a7.75,7.75,0,0,1,7.71,7.61,7.63,7.63,0,0,1-7.86,7.89,7.8,7.8,0,0,1-7.52-7.8A7.92,7.92,0,0,1,751.56,433.7Z"/><path d="M665.82,659.54a7.77,7.77,0,0,1-7.44,7.83,7.69,7.69,0,1,1,7.44-7.83Z"/><path d="M751.39,418a7.67,7.67,0,0,1,.44-15.34,7.67,7.67,0,0,1-.44,15.34Z"/><path d="M416.41,753.28a7.55,7.55,0,0,1-7.77,7.45,7.66,7.66,0,0,1-7.55-7.71,7.66,7.66,0,0,1,15.32.26Z"/><path d="M478.75,753a7.63,7.63,0,0,1-7.48,7.75,7.37,7.37,0,0,1-7.7-7.42,7.52,7.52,0,0,1,7.38-7.8A7.72,7.72,0,0,1,478.75,753Z"/><path d="M752.18,465.1a7.38,7.38,0,0,1,7,8.13,7.58,7.58,0,0,1-8.12,7,7.77,7.77,0,0,1-7-8.21A7.63,7.63,0,0,1,752.18,465.1Z"/><path d="M681.78,628a7.54,7.54,0,0,1,15.05.83,7.54,7.54,0,1,1-15.05-.83Z"/><path d="M135.87,535.1a7.49,7.49,0,0,1-7.75,7.41,7.35,7.35,0,0,1-7.43-7.67,7.5,7.5,0,0,1,7.69-7.47A7.59,7.59,0,0,1,135.87,535.1Z"/><path d="M533.38,122.24a7.39,7.39,0,0,1,7.61,7.5,7.58,7.58,0,1,1-7.61-7.5Z"/><path d="M627.05,683.32a7.52,7.52,0,0,1,7.48,7.71,7.63,7.63,0,0,1-7.89,7.33,7.52,7.52,0,0,1,.41-15Z"/><path d="M720.31,278.22a7.29,7.29,0,0,1,7.54,7.54,7.39,7.39,0,0,1-7.27,7.36,7.67,7.67,0,0,1-7.64-7.6A7.49,7.49,0,0,1,720.31,278.22Z"/><path d="M283.91,729.4a7.28,7.28,0,0,1-7.23-7.35,7.51,7.51,0,0,1,7.6-7.59,7.8,7.8,0,0,1,7.32,7.46A7.49,7.49,0,0,1,283.91,729.4Z"/><path d="M190.63,230.82a7.53,7.53,0,1,1,.12-15.06,7.53,7.53,0,0,1-.12,15.06Z"/><path d="M221.52,184.52a7.66,7.66,0,0,1,7.76,7.48,7.54,7.54,0,0,1-15.06.46A7.72,7.72,0,0,1,221.52,184.52Z"/><path d="M385,753.13a7.19,7.19,0,0,1-7.1,7.42,7.5,7.5,0,0,1-7.8-7.35,7.7,7.7,0,0,1,7.74-7.5A7.33,7.33,0,0,1,385,753.13Z"/><path d="M135.65,317a7.57,7.57,0,0,1-7.52,7.17,7.39,7.39,0,1,1,7.52-7.17Z"/><path d="M751.8,371.6a7.51,7.51,0,0,1,7.19,7.95,7.19,7.19,0,0,1-7.54,7,7.32,7.32,0,0,1-7.29-7.31A7.71,7.71,0,0,1,751.8,371.6Z"/><path d="M315.07,137.19a7.48,7.48,0,0,1-7.19-7.47,7.39,7.39,0,1,1,14.77.38A7.53,7.53,0,0,1,315.07,137.19Z"/><path d="M509.67,753.21a7.39,7.39,0,0,1-14.78.14,7.39,7.39,0,1,1,14.78-.14Z"/><path d="M751.5,511.22a7.4,7.4,0,1,1,.49-14.79,7.4,7.4,0,0,1-.49,14.79Z"/><path d="M159.28,261.67a7.22,7.22,0,1,1,.27-14.43,7.22,7.22,0,1,1-.27,14.43Z"/><path d="M260.11,161.13a7.16,7.16,0,0,1-7.37,7.12,7.31,7.31,0,1,1,7.37-7.12Z"/><path d="M602.93,721.79a7.13,7.13,0,0,1-14.25.66,7.15,7.15,0,0,1,6.77-7.69A7.24,7.24,0,0,1,602.93,721.79Z"/><path d="M751.75,340.73a7.24,7.24,0,0,1,0,14.47,7.24,7.24,0,1,1,0-14.47Z"/><path d="M190.79,652.44a7.34,7.34,0,0,1,7,7.52,7.16,7.16,0,0,1-7.66,6.8,6.93,6.93,0,0,1-6.68-7.19A7.11,7.11,0,0,1,190.79,652.44Z"/><path d="M727.7,597.12a7.23,7.23,0,0,1-7.17,7.35,7.14,7.14,0,0,1-.4-14.27A7.25,7.25,0,0,1,727.7,597.12Z"/><path d="M353.66,753.34a7.23,7.23,0,1,1-7.18-7.31A7.27,7.27,0,0,1,353.66,753.34Z"/><path d="M214.72,690.06a7.09,7.09,0,1,1,6.53,7.91A7.18,7.18,0,0,1,214.72,690.06Z"/><path d="M689.33,230.38a7.07,7.07,0,1,1,7.13-7.38A7.21,7.21,0,0,1,689.33,230.38Z"/><path d="M665.24,192a7.15,7.15,0,0,1-7.14,7.33,7.32,7.32,0,0,1-7.21-7.33,7.13,7.13,0,0,1,7-7A7,7,0,0,1,665.24,192Z"/><path d="M128.13,559.11a7,7,0,0,1,7.19,7.2,7.06,7.06,0,0,1-7,6.94,7.29,7.29,0,0,1-7.29-7.23A7.19,7.19,0,0,1,128.13,559.11Z"/><path d="M571.7,130a7,7,0,0,1-7.07,6.84,6.94,6.94,0,0,1-7-7.33,7.14,7.14,0,0,1,7-6.92A7.23,7.23,0,0,1,571.7,130Z"/><path d="M540.6,753a7.28,7.28,0,0,1-6.7,7.3,7.13,7.13,0,0,1-7.55-6.9,6.94,6.94,0,0,1,6.65-7.21A7.11,7.11,0,0,1,540.6,753Z"/><path d="M758.75,535a7.28,7.28,0,0,1-7.38,7.14A7.18,7.18,0,0,1,744.6,535a6.85,6.85,0,0,1,7.3-7A7,7,0,0,1,758.75,535Z"/><path d="M627,154a6.92,6.92,0,0,1,6.89,7,7,7,0,1,1-14-.21A7,7,0,0,1,627,154Z"/><path d="M159.33,635.47a6.88,6.88,0,0,1-6.89-7,7,7,0,0,1,6.83-7.06,7.19,7.19,0,0,1,7.21,7.25A7.08,7.08,0,0,1,159.33,635.47Z"/><path d="M401.78,98.67a7,7,0,1,1,14,.12,6.9,6.9,0,0,1-7.09,6.76A6.8,6.8,0,0,1,401.78,98.67Z"/><path d="M446.89,98.43a6.73,6.73,0,0,1-6.67,7.1A6.92,6.92,0,0,1,432.9,99a7.16,7.16,0,0,1,7-7.47A7,7,0,0,1,446.89,98.43Z"/><path d="M104,441.64a6.78,6.78,0,0,1-7,6.8,7.07,7.07,0,0,1-7-6.9,7.19,7.19,0,0,1,7.36-7.11A7,7,0,0,1,104,441.64Z"/><path d="M97.19,403.32a7,7,0,0,1,0,14A7.17,7.17,0,0,1,90,410.05,7.07,7.07,0,0,1,97.19,403.32Z"/><path d="M720.65,261.37a6.74,6.74,0,0,1-7-6.74,6.92,6.92,0,0,1,6.65-7.17,7.17,7.17,0,0,1,7.13,6.82A7,7,0,0,1,720.65,261.37Z"/><path d="M471.06,105.47a6.92,6.92,0,0,1-6.95-6.9,7.2,7.2,0,0,1,7-6.94,6.93,6.93,0,0,1,6.83,7A6.68,6.68,0,0,1,471.06,105.47Z"/><path d="M259.85,721.91a6.94,6.94,0,0,1-6.84,7,7.1,7.1,0,0,1-7.07-6.84,6.87,6.87,0,0,1,6.88-6.93A6.74,6.74,0,0,1,259.85,721.91Z"/><path d="M103.94,472.36a6.73,6.73,0,0,1-6.61,7.15,6.94,6.94,0,0,1-7.22-6.62,7.13,7.13,0,0,1,6.7-7.23A6.94,6.94,0,0,1,103.94,472.36Z"/><path d="M291,129.76a6.72,6.72,0,0,1-6.87,6.88,6.94,6.94,0,0,1-7-6.84,7.06,7.06,0,0,1,7-6.93A6.79,6.79,0,0,1,291,129.76Z"/><path d="M128.08,278.64a6.93,6.93,0,0,1,7,6.83,6.69,6.69,0,0,1-6.69,7,6.86,6.86,0,0,1-7.1-6.72A7.16,7.16,0,0,1,128.08,278.64Z"/><path d="M377.82,91.77A7,7,0,0,1,384.49,99a6.78,6.78,0,0,1-7.36,6.41c-4.05-.39-6.24-2.8-6.33-6.85A6.72,6.72,0,0,1,377.82,91.77Z"/><path d="M97.16,372.3A6.84,6.84,0,1,1,96.74,386c-4-.4-6.29-2.79-6.49-6.81A6.75,6.75,0,0,1,97.16,372.3Z"/><path d="M315.13,746.34a6.63,6.63,0,0,1,6.86,6.45,6.75,6.75,0,1,1-13.47.26A6.62,6.62,0,0,1,315.13,746.34Z"/><path d="M696,659.87a6.76,6.76,0,1,1-13.52-.43,6.76,6.76,0,1,1,13.52.43Z"/><path d="M751.58,323.55a6.75,6.75,0,1,1,.09-13.49,6.81,6.81,0,0,1,6.86,6.54A6.9,6.9,0,0,1,751.58,323.55Z"/><path d="M664.92,690.6a6.83,6.83,0,0,1-13.65.45,6.8,6.8,0,0,1,6.87-7A6.67,6.67,0,0,1,664.92,690.6Z"/><path d="M190.5,185.35a6.77,6.77,0,1,1-6.68,6.73A6.81,6.81,0,0,1,190.5,185.35Z"/><path d="M509,98.67a6.69,6.69,0,1,1-6.52-6.82A6.64,6.64,0,0,1,509,98.67Z"/><path d="M103.81,504a6.74,6.74,0,1,1-6.38-6.91A6.62,6.62,0,0,1,103.81,504Z"/><path d="M571.24,753.31a6.66,6.66,0,1,1-13.32-.32,6.82,6.82,0,0,1,6.85-6.53A6.67,6.67,0,0,1,571.24,753.31Z"/><path d="M751.62,572.78a6.67,6.67,0,0,1-6.7-6.63,6.78,6.78,0,0,1,6.66-6.69,6.66,6.66,0,0,1,0,13.32Z"/><path d="M596,136.43a6.77,6.77,0,0,1-6.9-6.46,6.72,6.72,0,0,1,13.43-.36A6.74,6.74,0,0,1,596,136.43Z"/><path d="M134.9,597.37a6.71,6.71,0,0,1-6.72,6.63,6.6,6.6,0,0,1-6.52-6.75,6.69,6.69,0,0,1,6.65-6.66A6.78,6.78,0,0,1,134.9,597.37Z"/><path d="M353,98.55a6.53,6.53,0,1,1-13.05-.08c.23-3.88,2.4-6.12,6.31-6.34A6.3,6.3,0,0,1,353,98.55Z"/><path d="M103.71,348a6.58,6.58,0,0,1-6.8,6.47,6.28,6.28,0,0,1-6.32-6.82c.26-3.93,2.57-6,6.42-6.22A6.55,6.55,0,0,1,103.71,348Z"/><path d="M165.92,223.33a6.54,6.54,0,1,1-13.06-.34c.3-3.91,2.67-6,6.46-6.28A6.42,6.42,0,0,1,165.92,223.33Z"/><path d="M633.61,721.78a6.63,6.63,0,0,1-6.58,6.71c-3.94-.06-6.2-2.19-6.58-6.07a6.45,6.45,0,0,1,6.19-7A6.79,6.79,0,0,1,633.61,721.78Z"/><path d="M228.36,161.05a6.5,6.5,0,0,1-6.83,6.41c-4-.22-6.05-2.62-6.37-6.37-.31-3.57,2.92-6.68,6.57-6.71A6.65,6.65,0,0,1,228.36,161.05Z"/><path d="M727,628.52a6.54,6.54,0,1,1-13.06-.3c.31-3.88,2.59-6.06,6.46-6.27A6.3,6.3,0,0,1,727,628.52Z"/><path d="M751.66,279.22c3.77.35,6.15,2.3,6.25,6.26s-2.25,6.14-6,6.57a6.35,6.35,0,0,1-6.68-6.49C745.48,281.75,747.67,279.56,751.66,279.22Z"/><path d="M284.1,759.55c-3.75-.29-6.2-2.21-6.32-6.17s2.16-6.2,6-6.62a6.33,6.33,0,0,1,6.76,6.42C290.27,757,288.13,759.22,284.1,759.55Z"/><path d="M197,690.62c-.3,3.92-2.27,6.26-6.16,6.59a6.25,6.25,0,0,1-6.66-6.48c.27-3.81,2.44-6.24,6.37-6.25S196.49,686.88,197,690.62Z"/><path d="M533.72,92.2c3.75.47,6.08,2.56,6.06,6.48s-2.49,6.1-6.28,6.39A6.38,6.38,0,0,1,527,98.33C527.42,94.49,529.7,92.42,533.72,92.2Z"/><path d="M97.27,541.43c-3.79-.29-6.19-2.17-6.52-6.11a6.22,6.22,0,0,1,6.35-6.77c3.9.2,6.29,2.56,6.37,6.33S101.2,540.93,97.27,541.43Z"/><path d="M689.24,198.55c-3.8-.38-6.2-2.41-6.29-6.31s2.28-6.15,6.09-6.51a6.27,6.27,0,0,1,6.64,6.51C695.44,196.13,693.14,198.17,689.24,198.55Z"/><path d="M782.81,479.13c-3.78-.48-6.16-2.38-6.35-6.34a6.11,6.11,0,0,1,6.55-6.48c4,.22,6,2.58,6,6.44S786.57,478.63,782.81,479.13Z"/><path d="M477.61,784.2c-.47,3.73-2.24,6.21-6.25,6.43a6.1,6.1,0,0,1-6.6-6.42c.2-3.93,2.46-6.14,6.35-6.18S477,780.46,477.61,784.2Z"/><path d="M664.45,160.51c.1,3.7-2.77,6.88-6.18,6.77-3.85-.14-6.29-2.26-6.4-6.18s2.3-6.32,6.09-6.44S664,157,664.45,160.51Z"/><path d="M153.07,658.86c.85-3.47,3-5.72,6.93-5.48a6.34,6.34,0,0,1,5.74,6.87,6.49,6.49,0,0,1-6.92,5.73A6.6,6.6,0,0,1,153.07,658.86Z"/><path d="M253,136.22c-3.69-.48-6.25-2.29-6.32-6.29s2.2-6.31,6.07-6.42,6.24,2.22,6.36,6.12S256.84,135.6,253,136.22Z"/><path d="M377.68,778c3.78.34,6.19,2.34,6.15,6.28s-2.26,6.21-6.23,6.21-6.25-2.36-6.25-6.19S373.65,778.31,377.68,778Z"/><path d="M134.67,254.37c-.48,3.8-2.42,6.29-6.36,6.31S122,258.4,122,254.52s2.26-6.22,6.21-6.29S134.07,250.65,134.67,254.37Z"/><path d="M782.56,435.09c3.88.26,6.27,2.1,6.5,6.09a6.06,6.06,0,0,1-6.34,6.67c-3.86-.22-6.21-2.39-6.23-6.31S778.75,435.54,782.56,435.09Z"/><path d="M789.13,410c-.17,3.83-2,6.24-6,6.56a6.05,6.05,0,0,1-6.7-6.29c.11-3.92,2.3-6.23,6.17-6.31S788.73,406.1,789.13,410Z"/><path d="M446.35,784.5c-.34,3.44-2.11,6-6.12,6.09s-6.23-2-6.61-5.86a6.21,6.21,0,0,1,6.3-6.74A6.38,6.38,0,0,1,446.35,784.5Z"/><path d="M502.24,790.52a6.17,6.17,0,1,1,.32-12.33c3.76.22,5.69,2.5,6,6.06S505.74,790.53,502.24,790.52Z"/><path d="M409.16,778c3.53.37,5.79,2.38,5.92,6.32a6.08,6.08,0,0,1-6.66,6.32c-4-.29-5.93-2.66-6-6.51C402.4,780.58,405.32,777.92,409.16,778Z"/><path d="M789,503.54a6.27,6.27,0,0,1-6,6.57,6.21,6.21,0,0,1-6.31-6.27c.08-3.72,2.18-5.84,5.76-6.27A6.12,6.12,0,0,1,789,503.54Z"/><path d="M103.28,316.74A6.14,6.14,0,0,1,97,323c-3.59-.24-5.82-2.25-6.13-5.93a6.21,6.21,0,1,1,12.4-.37Z"/><path d="M789.07,379.15c-.26,3.75-2.22,6.17-6.17,6.22s-6.22-2.19-6.3-6.12,2.23-6.29,6.08-6.36S788.73,375.1,789.07,379.15Z"/><path d="M309,98.53a6.33,6.33,0,0,1,6.48-6.14,6.21,6.21,0,0,1,6,6.55c-.38,3.61-2.55,5.71-6.2,5.9A6.26,6.26,0,0,1,309,98.53Z"/><path d="M215.6,721.89a6,6,0,0,1,6.39-6.11c3.57.34,5.86,2.34,5.88,6.09,0,4-2.26,6.12-6.12,6.35A6,6,0,0,1,215.6,721.89Z"/><path d="M726.72,223.25a6.13,6.13,0,0,1-6.34,6.19c-3.77-.1-5.76-2.31-6.14-5.85a6,6,0,0,1,6-6.45A6.17,6.17,0,0,1,726.72,223.25Z"/><path d="M595.8,747c3.87.42,6.1,2.42,6.13,6.39a6,6,0,0,1-6.44,6c-3.64-.3-5.77-2.36-5.82-6.08C589.63,749.24,592,747.34,595.8,747Z"/><path d="M751.67,603.49a6,6,0,0,1-6.2-6.26c.21-3.6,2.13-5.91,5.88-6,4-.12,6.17,2.06,6.44,5.95A6,6,0,0,1,751.67,603.49Z"/><path d="M626.89,135.86c-3.49-.38-5.85-2.18-5.94-5.91s2.13-5.84,5.7-6.23a5.86,5.86,0,0,1,6.27,6.13C632.78,133.6,630.6,135.46,626.89,135.86Z"/><path d="M346.69,790.43c-3.67-.24-6-2-6.19-5.76s1.79-5.94,5.5-6.34a5.94,5.94,0,0,1,6.51,5.92C352.37,787.86,350.3,789.94,346.69,790.43Z"/><path d="M128.55,634.51c-3.92-.12-6-2.19-6.36-5.77a5.93,5.93,0,0,1,6.15-6.29c3.71.19,5.84,2.38,5.87,6S132.07,634.16,128.55,634.51Z"/><path d="M103.06,566c-.17,3.85-2.19,5.94-5.8,6.26A6,6,0,0,1,91,566c.32-3.57,2.29-5.85,6.07-5.8S102.75,562.4,103.06,566Z"/><path d="M788.89,347.93c-.34,3.69-2.34,5.84-5.95,6.13a6,6,0,0,1-6.16-6.3C777,344,779.23,342,782.9,342S788.48,344.37,788.89,347.93Z"/><path d="M564.55,104.61c-3.57-.23-5.77-2.12-5.88-5.84s2.05-5.84,5.65-6.21a6,6,0,0,1,6.35,6.1C570.41,102.25,568.42,104.37,564.55,104.61Z"/><path d="M751.32,260.39c-3.55-.56-5.7-2.54-5.5-6.28a5.37,5.37,0,0,1,5.78-5.5c3.67,0,5.94,2.33,5.87,5.95S755.09,260.18,751.32,260.39Z"/><path d="M258.86,753.36c-.55,3.68-2.68,5.84-6.3,5.66a5.43,5.43,0,0,1-5.49-5.84c.05-3.62,2.21-5.89,6-5.83S258.52,749.81,258.86,753.36Z"/><path d="M788.8,535.59c-.82,3.56-3,5.71-6.63,5.3s-5.67-2.81-5.25-6.51,2.79-5.56,6.5-5.2S788.73,532,788.8,535.59Z"/><path d="M533.59,790.4c-3.76-.49-6-2.3-6-6.09s2.19-5.89,5.87-5.88,5.88,2.34,5.89,5.94S537,789.92,533.59,790.4Z"/><path d="M689.13,696.8c-3.71-.39-5.84-2.51-5.74-6.21a5.44,5.44,0,0,1,5.75-5.69c3.72,0,6,2.17,6,5.91S692.89,696.52,689.13,696.8Z"/><path d="M407,73.47c-1.1-1.64-3.5-3.7-3.83-6.06-.49-3.6,2.27-5.82,5.87-5.73a5.35,5.35,0,0,1,5.53,5.76C414.51,71.1,412.16,73,407,73.47Z"/><path d="M72,411.89c-1.55,1.14-3.53,3.67-5.87,4.05-3.5.57-5.93-2-5.94-5.67a5.36,5.36,0,0,1,5.56-5.73C69.4,404.43,71.33,406.71,72,411.89Z"/><path d="M664.18,723.66c-1.54,1.11-3.54,3.61-5.9,4-3.58.6-6-2-6-5.72,0-3.39,2-5.68,5.6-5.74C661.73,716.15,663.61,718.36,664.18,723.66Z"/><path d="M722.06,665.73c-5.3-.6-7.48-2.52-7.37-6.34.1-3.61,2.38-5.54,5.78-5.55,3.78,0,6.27,2.53,5.69,6C725.77,662.23,723.2,664.21,722.06,665.73Z"/><path d="M438.42,73.54c-1.18-1.58-3.74-3.55-4.13-5.88-.58-3.48,2-6,5.64-6a5.34,5.34,0,0,1,5.75,5.52C445.83,70.93,443.53,72.81,438.42,73.54Z"/><path d="M166.09,193.38c-2.18,1.56-4.21,4.13-6.57,4.46-3.5.5-6-2-5.87-5.82s2.46-6.27,6.09-5.53c2.35.49,4.29,3,6.41,4.59Z"/><path d="M71.92,443.09c-1.52,1.1-3.49,3.57-5.84,4-3.59.64-5.89-2.06-5.95-5.64a5.36,5.36,0,0,1,5.56-5.74C69.31,435.61,71.38,437.83,71.92,443.09Z"/><path d="M189.4,167.64c-1.55-2.15-4-4.14-4.45-6.49-.66-3.63,1.88-5.92,5.66-6s6.25,2.49,5.68,6c-.39,2.35-3,4.32-4.57,6.47Z"/><path d="M290.76,99.57c-2.12,1.61-4,4.08-6.38,4.62-3.38.79-5.6-1.66-6-5.11-.42-3.29,2.49-6.82,5.62-6.12,2.43.55,4.48,2.77,6.7,4.24Z"/><path d="M103.7,286.94c-2.2,1.49-4.25,3.84-6.64,4.27-3.45.62-5.48-2-5.78-5.44-.28-3.25,2.91-6.67,6-5.8,2.4.69,4.33,3,6.47,4.61Z"/><path d="M65,385.72c-1.62-2.11-4.17-4.05-4.62-6.4-.62-3.25,1.71-5.7,5.29-5.83s6.12,2.07,5.76,5.38c-.26,2.37-2.64,4.51-4.08,6.76Z"/><path d="M384,69.17c-2.3,1.34-4.53,3.62-6.91,3.78-3.34.24-5.43-2.44-5.14-6s2.81-5.82,6.06-5.05c2.32.54,4.15,3.16,6.2,4.86Z"/><path d="M134.76,224.37c-2.14,1.57-4.13,4.1-6.47,4.47-3.25.52-5.61-1.84-5.64-5.47s2.16-6.08,5.48-5.63c2.35.33,4.42,2.76,6.61,4.26Z"/><path d="M64.66,479.17c-1.5-2.19-3.94-4.24-4.27-6.6-.48-3.31,2-5.57,5.58-5.52s6,2.27,5.47,5.62C71,475,68.58,477,67,479.19Z"/><path d="M477.61,68.8c-2.21,1.47-4.3,3.88-6.66,4.18-3.33.43-5.5-2.1-5.42-5.67s2.42-6,5.7-5.4c2.34.42,4.3,3,6.43,4.53Z"/><path d="M781.32,323.26c-1.43-2.23-3.8-4.35-4.05-6.71-.35-3.29,2.11-5.49,5.75-5.35s5.89,2.55,5.28,5.79c-.43,2.33-3,4.26-4.57,6.37Z"/><path d="M321.8,785.32c-2.11,1.58-4.06,4.09-6.39,4.53-3.27.61-5.62-1.68-5.73-5.32s2.07-6.11,5.37-5.74c2.35.27,4.46,2.67,6.67,4.12C321.75,783.71,321.78,784.52,321.8,785.32Z"/><path d="M220.73,136.32c-1.58-2.13-4.09-4.08-4.51-6.42-.59-3.28,1.76-5.63,5.37-5.73s6.07,2.14,5.69,5.43c-.28,2.35-2.69,4.45-4.15,6.66Z"/><path d="M508.73,68.49c-2.15,1.55-4.15,4.08-6.48,4.42-3.27.48-5.53-1.93-5.5-5.56,0-3.38,2.15-5.73,5.23-5.31,2.37.33,4.47,2.61,6.7,4Z"/><path d="M781.13,571.81c-1-1.45-3.51-3.48-3.81-5.79-.43-3.29,2.13-5.55,5.66-5.48a5.13,5.13,0,0,1,5.37,5.39C788.41,569.38,786.45,571.46,781.13,571.81Z"/><path d="M602.27,100c-2.26,1.42-4.41,3.78-6.79,4-3.41.38-5.48-2.36-5.26-5.82.2-3.21,2.37-5.65,5.56-5,2.39.52,4.4,2.8,6.57,4.3C602.33,98.39,602.3,99.2,602.27,100Z"/><path d="M64.92,510.3c-1.54-2.13-3.94-4.09-4.41-6.44-.61-3,1.56-5.33,4.94-5.57,3.63-.26,6.17,1.87,5.9,5.16-.2,2.34-2.58,4.5-4,6.74Z"/><path d="M570.3,782.64c-.38,5.26-2.51,7.78-5.8,7.08a8.38,8.38,0,0,1-5.31-5.22,4.63,4.63,0,0,1,5.26-5.64C566.77,779.15,568.82,781.62,570.3,782.64Z"/><path d="M90.73,595.89c2.22-1.42,4.55-4.06,6.63-3.88s4.66,3.14,5.11,5.29a4.59,4.59,0,0,1-5.4,5.47c-2.31-.35-4.29-2.88-6.42-4.43Z"/><path d="M757.36,630.21c-1.55,1-3.83,3.73-5.92,3.6-1.93-.13-4.74-3.06-5.22-5.19-.74-3.3,1.82-5.64,5.32-5.69S756.91,625.07,757.36,630.21Z"/><path d="M625.46,759.51c-1.38-2.24-4-4.6-3.76-6.68s3.15-4.69,5.27-5.08a4.6,4.6,0,0,1,5.42,5.45c-.4,2.32-2.91,4.28-4.47,6.4Z"/><path d="M196.9,723c-2,1.49-3.81,3.8-6,4.28-3.47.75-5.71-1.73-5.79-5.18s2.16-6,5.58-5.46c2.22.35,4.13,2.66,6.18,4.09Z"/><path d="M165.78,691.74c-2,1.53-3.77,3.93-6,4.41-3.41.75-5.76-1.65-5.86-5.14s2-6,5.5-5.5c2.24.34,4.19,2.58,6.27,4Z"/><path d="M687.84,167.23c-1.36-2.1-3.59-4.09-3.88-6.33-.44-3.44,2.08-5.59,5.6-5.42s5.8,2.59,5,5.94c-.51,2.2-2.93,4-4.49,5.92Z"/><path d="M726.82,193c-2,1.53-3.72,3.9-5.92,4.41-3.4.81-5.77-1.48-5.92-5s2.07-6,5.44-5.61c2.23.27,4.21,2.56,6.3,3.94C726.75,191.44,726.79,192.19,726.82,193Z"/><path d="M59.72,346.79c2-1.44,3.94-3.78,6.14-4.1,3.43-.51,5.57,2.07,5.42,5.54-.13,3.2-2.26,5.63-5.48,5-2.22-.46-4.07-2.7-6.09-4.14Z"/><path d="M352.67,68.54c-2,1.46-3.91,3.83-6.1,4.16-3.33.5-5.67-1.87-5.55-5.43.11-3.25,2.25-5.61,5.44-5,2.23.41,4.14,2.59,6.19,4C352.66,67,352.66,67.77,352.67,68.54Z"/><path d="M664.34,130.66c-2,1.51-3.85,3.9-6.06,4.33-3.08.58-5.34-1.64-5.45-5s1.9-5.76,5.07-5.35c2.25.29,4.25,2.5,6.36,3.85C664.28,129.21,664.31,129.93,664.34,130.66Z"/><path d="M129.67,653.56c1.33,2.11,3.52,4.12,3.77,6.35.35,3.17-2.14,5.24-5.41,5.07s-5.64-2.29-5-5.5c.48-2.22,2.78-4,4.27-6Z"/><path d="M788.88,286.94c-2.08,1.37-4,3.61-6.25,3.88-3.1.37-5.17-2-5.08-5.33s2.18-5.61,5.35-5c2.19.42,4,2.69,6,4.14C788.91,285.41,788.89,286.18,788.88,286.94Z"/><path d="M285.05,778.2c1.49,2,3.87,3.82,4.25,6,.53,3-1.68,5.29-5,5.39s-5.71-1.89-5.3-5.06c.28-2.21,2.45-4.18,3.78-6.26Z"/><path d="M820,442.36c-2,1.44-3.78,3.74-5.94,4.13a4.16,4.16,0,0,1-5.07-5c.4-2,2.88-4.73,4.65-4.91,2-.21,4.18,2.13,6.28,3.36C819.92,440.76,819.94,441.56,820,442.36Z"/><path d="M71.83,536.45c-2.09,1.27-4.12,3.44-6.3,3.61a4.24,4.24,0,0,1-4.6-5.49c.58-2,3.3-4.53,5.07-4.54,2,0,4,2.57,5.94,4Z"/><path d="M246.91,97.35c2.06-1.33,4-3.49,6.21-3.79a4.17,4.17,0,0,1,4.77,5.29c-.49,2-3.14,4.61-4.92,4.69-2,.09-4.05-2.4-6.08-3.77C246.9,99,246.91,98.15,246.91,97.35Z"/><path d="M752.52,217.26c1.45,2,3.75,3.77,4.15,5.94a4.17,4.17,0,0,1-5,5.08c-2-.39-4.74-2.86-4.94-4.64-.21-1.95,2.13-4.18,3.36-6.28Z"/><path d="M534.42,61.38c1.44,2,3.75,3.86,4.11,6a4.2,4.2,0,0,1-5.11,5c-2-.43-4.79-3-4.94-4.72-.17-2,2.27-4.16,3.57-6.26Z"/><path d="M215.77,751.9c2-1.33,4.18-3.79,6.13-3.65,1.79.12,4.39,2.8,4.85,4.76a4.2,4.2,0,0,1-4.89,5.21c-2.18-.33-4.08-2.54-6.11-3.9C215.76,753.51,215.76,752.71,215.77,751.9Z"/><path d="M819.92,411.64c-1.95,1.28-3.78,3.34-5.88,3.68-3.3.53-5.32-1.76-5.25-5.15s2.29-5.55,5.51-4.89c2.08.43,3.8,2.64,5.68,4.05Z"/><path d="M407.1,821.39c-1.17-2.14-3.45-4.42-3.19-6.36.24-1.78,3-4.18,5-4.52,3.2-.56,5.49,2.07,4.82,5.21-.47,2.15-2.78,3.9-4.27,5.83Z"/><path d="M438.94,821.52c-1.4-2-3.63-3.83-4-6a4.13,4.13,0,0,1,5-5c2,.41,4.69,2.93,4.85,4.71.18,1.95-2.19,4.14-3.44,6.23Z"/><path d="M103,255.88c-2.1,1.26-4.31,3.62-6.29,3.44-1.77-.16-4.31-2.92-4.7-4.88a4.19,4.19,0,0,1,5.09-5c2.18.4,4,2.67,6,4.11C103.11,254.33,103.08,255.11,103,255.88Z"/><path d="M720.16,683.43c2.56,3.33,4.83,5,5.24,7.1a4.22,4.22,0,0,1-4.93,5.18c-1.93-.35-4.55-3-4.8-4.85S717.89,686.94,720.16,683.43Z"/><path d="M690.37,716.1c1.33,1.93,3.5,3.73,3.81,5.8.48,3.19-2,5.71-5.09,5-1.93-.45-4.46-3.15-4.64-5s2.38-3.82,3.73-5.74Z"/><path d="M784.07,591.47c1.26,2,3.71,4.12,3.45,5.87s-2.87,4.38-4.85,4.81a4,4,0,0,1-4.75-4.87c.37-2.1,2.44-3.9,3.75-5.84Z"/><path d="M469.71,821.34c-1.27-1.94-3.36-3.79-3.61-5.86-.39-3.17,1.91-5.23,5.22-5.11s5.4,2.43,4.73,5.55c-.44,2-2.66,3.69-4.08,5.52Z"/><path d="M596.73,778.43c1.37,1.9,3.94,3.91,3.78,5.67s-2.64,4.52-4.59,5.06a4,4,0,0,1-5-4.6c.27-2.13,2.25-4,3.46-6Z"/><path d="M819.84,473.84c-1.9,1.33-3.68,3.46-5.74,3.78-3.15.49-5.32-1.68-5.26-5s2.24-5.51,5.38-4.94c2.06.37,3.78,2.58,5.65,4Z"/><path d="M383.52,816.52c-1.93,1.33-3.7,3.38-5.81,3.81-3.07.61-5-1.53-5.08-4.71s1.83-5.43,4.82-5c2.12.28,4,2.36,6,3.64Z"/><path d="M812.76,385c-1.3-2-3.39-3.81-3.71-5.92-.45-3,1.71-5,4.92-4.93s5.38,1.9,4.82,5c-.39,2.13-2.42,4-3.72,5.91Z"/><path d="M71.71,318c-1.91,1.31-4,3.82-5.71,3.6-1.89-.23-4.48-2.74-4.94-4.69-.77-3.22,1.88-5.53,5-5.09,2,.29,3.8,2.54,5.69,3.91Z"/><path d="M316.33,61.56c1.35,1.91,3.89,3.91,3.73,5.69s-2.65,4.49-4.58,5c-3.18.81-5.6-1.7-5.18-4.86.27-2.07,2.48-3.88,3.82-5.81Z"/><path d="M565.78,61.64c1.29,2,3.81,4.13,3.55,5.86s-3,4.24-5,4.58c-1.25.22-4.25-2.83-4.33-4.52-.1-1.92,2.18-4,3.43-5.94Z"/><path d="M819.71,505c-1.93,1.26-4,3.72-5.74,3.47s-3.39-3-5.06-4.7c1.69-1.66,3.23-4.41,5.11-4.65,1.71-.23,3.79,2.25,5.7,3.54C819.72,503.45,819.71,504.23,819.71,505Z"/><path d="M632.68,99.9c-1.95,1.22-4.08,3.61-5.79,3.34-1.87-.29-3.34-3.06-5-4.74,1.71-1.65,3.3-4.43,5.17-4.63s3.76,2.38,5.66,3.73C632.71,98.36,632.7,99.13,632.68,99.9Z"/><path d="M102.84,629.45c-1.87,1.34-3.86,3.89-5.57,3.7-1.89-.21-3.51-2.89-5.26-4.5,1.63-1.74,3.07-4.56,4.94-4.89,1.69-.3,3.86,2.13,5.82,3.36Z"/><path d="M67.21,560.43c1.22,2,3.51,4,3.35,5.9s-3.14,4.74-4.42,4.53c-2-.34-4.63-2.8-4.92-4.69-.27-1.69,2.25-3.83,3.54-5.77Z"/><path d="M508.07,816.38c-1.87,1.36-3.84,3.92-5.56,3.76-1.88-.16-3.52-2.86-5.27-4.45,1.61-1.74,3-4.59,4.88-4.91,1.71-.3,3.88,2.12,5.85,3.34C508,814.88,508,815.63,508.07,816.38Z"/><path d="M757.41,660.87c-2,1.24-4,3.52-5.95,3.41-1.68-.1-4.69-3.14-4.46-4.4.36-2,2.79-4.74,4.63-5s3.87,2.36,5.82,3.71C757.44,659.37,757.43,660.12,757.41,660.87Z"/><path d="M659.55,747.45c1.16,2,3.38,4.13,3.18,6s-3.27,4.72-4.49,4.45c-2-.44-4.63-2.92-4.87-4.81-.21-1.72,2.41-3.8,3.78-5.71Z"/><path d="M158.35,166.76c-1.29-1.95-3.61-3.93-3.55-5.83,0-1.68,2.52-4.19,4.37-4.69a4,4,0,0,1,5.09,4.51c-.23,2.1-2.35,4-3.63,6Z"/><path d="M812.81,353.77c-1.3-2-3.44-3.84-3.7-5.95a4,4,0,0,1,5-4.58c1.86.47,4.39,3,4.46,4.64.07,1.92-2.25,3.93-3.53,5.9Z"/><path d="M345.26,821.26c-1.26-2-3.57-4-3.46-5.84s3.05-4.83,4.3-4.62c2,.33,4.72,2.7,5,4.58.29,1.7-2.2,3.89-3.47,5.86Z"/><path d="M196.43,130.78c-2,1.32-3.91,3.69-5.84,3.67-1.67,0-4.22-2.51-4.74-4.37a4.05,4.05,0,0,1,4.49-5.16c2.1.2,4,2.33,6,3.6Z"/><path d="M129.65,186.42c1.19,2,3.44,4.1,3.25,6s-3.24,4.73-4.5,4.48c-2-.39-4.6-2.89-4.87-4.79-.24-1.7,2.34-3.79,3.68-5.71Z"/><path d="M789.77,254.49c-3.22,2.25-5.15,4.66-6.84,4.5s-4.36-2.54-4.78-4.36a4,4,0,0,1,4.76-4.88C784.87,250,786.56,252.17,789.77,254.49Z"/><path d="M259.85,784.63c-3.29,2.14-5.07,4.18-7,4.39a4,4,0,0,1-4.55-5.08c.48-1.8,3.18-4.06,5-4.16S256.75,782.21,259.85,784.63Z"/><path d="M821,535.12c-3.37,2.21-5.34,4.52-7,4.33a6.79,6.79,0,0,1-4.68-4.38,3.92,3.92,0,0,1,4.84-4.68C816.12,530.77,817.77,532.79,821,535.12Z"/><path d="M534.42,809.88c1.27,1.81,3.63,3.72,3.49,5.42s-2.45,4.37-4.24,4.8c-2.95.71-5.32-1.54-4.82-4.66.32-2,2.28-3.7,3.51-5.54Z"/><path d="M440.76,30.82c1.29,1.8,3.74,3.72,3.57,5.37s-2.69,4.12-4.52,4.48c-1.21.23-4.13-2.54-4.26-4.11-.13-1.8,2-3.77,3.14-5.66Z"/><path d="M67,280.23c1.24,1.81,3.63,3.78,3.4,5.38-.25,1.77-2.9,4.42-4.51,4.42s-4.21-2.69-4.44-4.46c-.21-1.61,2.18-3.55,3.43-5.35Z"/><path d="M291,67.43c-3.25,2.28-5.18,4.69-6.83,4.51s-4.36-2.89-4.37-4.49,2.65-4.3,4.36-4.49S287.73,65.18,291,67.43Z"/><path d="M35.58,436c1.29,1.8,3.56,3.6,3.56,5.38,0,1.6-2.71,4.58-3.93,4.44-1.87-.22-4.57-2.38-4.9-4.11s2-3.72,3.18-5.61Z"/><path d="M102.47,224.23c-1.81,1.25-3.62,3.48-5.41,3.47-1.53,0-4.37-2.76-4.23-4,.21-1.83,2.41-4.52,4.08-4.78s3.66,2.09,5.51,3.3C102.43,222.87,102.45,223.55,102.47,224.23Z"/><path d="M725.81,161.84c-1.77,1.23-3.55,3.44-5.3,3.42-1.57,0-4.49-2.65-4.35-3.83.22-1.84,2.32-4.46,4-4.81s3.66,1.91,5.53,3C725.74,160.37,725.77,161.1,725.81,161.84Z"/><path d="M694.6,131c-1.84,1.15-3.87,3.41-5.47,3.14s-3.89-2.88-4.13-4.69c-.16-1.2,2.69-3.9,4.25-3.95,1.77,0,3.6,2.12,5.4,3.33C694.63,129.52,694.62,130.25,694.6,131Z"/><path d="M133.54,692.15c-1.87,1.09-4,3.3-5.55,3s-3.8-3-4-4.79c-.12-1.22,2.79-3.84,4.34-3.84,1.77,0,3.54,2.21,5.31,3.47C133.61,690.69,133.58,691.42,133.54,692.15Z"/><path d="M227.16,99.42c-1.76,1.29-3.66,3.73-5.26,3.55-1.77-.2-4.09-2.59-4.56-4.43-.28-1.08,2.47-4,4.07-4.2,1.75-.2,3.75,1.82,5.64,2.88Z"/><path d="M415.38,36.3c-3.15,2.19-5.11,4.57-6.49,4.27-1.82-.39-3.19-2.88-4.75-4.48,1.51-1.48,3-4.1,4.55-4.15C410.45,31.88,412.28,34.14,415.38,36.3Z"/><path d="M316.11,810.07c1.25,1.78,3.64,3.69,3.46,5.31s-2.59,4.1-4.42,4.53c-1.12.26-4-2.49-4.19-4.08-.17-1.78,1.88-3.76,3-5.65Z"/><path d="M819.38,317.75c-1.81,1.22-3.76,3.57-5.39,3.37s-4-2.7-4.38-4.52c-.23-1.14,2.57-4,4.16-4.09,1.77-.13,3.71,1.95,5.57,3.07Z"/><path d="M160.42,716.62c1.2,1.81,3.36,3.64,3.3,5.41,0,1.55-2.75,4.37-4,4.21-1.81-.24-4.42-2.44-4.68-4.12s2-3.63,3.2-5.48Z"/><path d="M35.12,466.06c2,3.25,4.08,5.21,3.9,6.92-.16,1.56-3.19,4.25-4.3,3.95a6.92,6.92,0,0,1-4.28-4.67C30.21,470.9,32.71,469.09,35.12,466.06Z"/><path d="M782.59,622.24c2.19,2.68,4.72,4.47,4.5,5.82-.3,1.86-2.67,3.39-4.15,5.06-1.6-1.57-4.07-2.94-4.49-4.77C778.14,627,780.56,625.07,782.59,622.24Z"/><path d="M477.41,36.14c-2.68,2.12-4.46,4.59-5.88,4.4-1.8-.25-3.29-2.67-4.91-4.16,1.54-1.58,2.91-4.11,4.69-4.45C472.7,31.66,474.62,34.1,477.41,36.14Z"/><path d="M41.39,410.55c-3.2,2-5.13,4.17-6.89,4.05-1.56-.11-2.94-2.77-4.4-4.3,1.63-1.54,3.1-4,4.94-4.32C36.45,405.74,38.32,408.22,41.39,410.55Z"/><path d="M190.43,759.81c-2.1-3.25-4.29-5.14-4.15-6.86s2.73-3,4.25-4.41c1.51,1.6,3.89,3,4.23,4.86C195,754.79,192.68,756.66,190.43,759.81Z"/><path d="M751.45,198.42c-2.05-2.86-4.44-4.8-4.15-6.13.41-1.83,2.85-3.21,4.43-4.78,1.45,1.65,3.79,3.17,4.08,5C756,193.89,753.59,195.68,751.45,198.42Z"/><path d="M632.21,785.58c-1.89,1.11-3.86,3.19-5.63,3-1.49-.13-3.85-2.9-3.8-4.43s2.61-4.15,4.1-4.17c1.79,0,3.61,2.2,5.41,3.44Z"/><path d="M726.72,722.3c-3,1.9-4.92,4-6.41,3.78s-2.89-2.76-4.31-4.29c1.54-1.42,3-3.85,4.65-4S723.86,720.06,726.72,722.3Z"/><path d="M72.23,597.56c-2.93,2-4.94,4.26-6.27,3.92-1.77-.44-3-3-4.47-4.59,1.57-1.36,3.11-3.74,4.73-3.8S69.44,595.36,72.23,597.56Z"/><path d="M658.33,92.34c2,3,4.2,4.92,4,6.42s-2.79,2.9-4.34,4.33c-1.4-1.55-3.77-3-3.91-4.67S656.2,95.19,658.33,92.34Z"/><path d="M383.88,36.3c-2.89,2.05-4.83,4.43-6.14,4.12-1.81-.42-3.15-2.86-4.68-4.44,1.56-1.4,3-3.77,4.7-3.92C379.28,31.92,381,34.19,383.88,36.3Z"/><path d="M34.69,372.78c2.05,2.84,4.27,4.57,4.18,6.17S36.38,382,35,383.54c-1.59-1.5-4.12-2.82-4.48-4.58C30.23,377.58,32.63,375.66,34.69,372.78Z"/><path d="M97.25,666c-2.1-2.86-4.34-4.58-4.24-6.16s2.53-4.21,3.92-4.2,4.1,2.37,4.3,4S99.23,663,97.25,666Z"/><path d="M602,67.5c-2.88,2.08-4.83,4.48-6.13,4.17-1.79-.43-3.11-2.9-4.63-4.5,1.55-1.38,3-3.74,4.67-3.87S599.21,65.43,602,67.5Z"/><path d="M820.25,566c-2.91,2.09-4.65,4.31-6.17,4.17s-4.13-2.56-4.13-4,2.38-4,4-4.2S817.25,564,820.25,566Z"/><path d="M570.9,815.85c-3.09,1.91-5,4-6.49,3.76s-2.82-2.81-4.21-4.36c1.55-1.36,3-3.7,4.66-3.8S568,813.64,570.9,815.85Z"/><path d="M41,503.76c-2.91,2.1-4.67,4.35-6.16,4.18s-4.11-2.62-4.12-4.09,2.44-4,4-4.17S38,501.71,41,503.76Z"/><path d="M751.82,697.13c-2.16-3-4.44-4.79-4.26-6.29s2.54-3.68,4.28-4.07c1-.23,3.7,2.4,3.77,3.84C755.69,692.28,753.74,694.05,751.82,697.13Z"/><path d="M508.62,36.27c-3,2-4.78,4.22-6.31,4s-3-2.6-4.45-4c1.47-1.47,2.82-3.93,4.44-4.11S505.63,34.21,508.62,36.27Z"/><path d="M814,292c-2-3.12-4.16-5-4-6.48s2.56-3.65,4.24-3.93c1.08-.17,3.67,2.47,3.7,3.9C818,287.19,816,288.91,814,292Z"/><path d="M787.64,224.32c-1.71,1.07-3.47,3-5.1,2.93-1.39-.09-3.66-2.57-3.65-4s2.31-3.89,3.69-3.95c1.64-.08,3.37,1.92,5.07,3Z"/><path d="M134,160.72c-2.4,2-4,4.35-5.33,4.19-1.71-.21-3.16-2.42-4.72-3.77,1.44-1.5,2.7-3.84,4.38-4.21C129.65,156.66,131.48,158.9,134,160.72Z"/><path d="M228,784.61c-3.12,1.86-4.92,3.8-6.54,3.66-1.41-.13-2.61-2.61-3.9-4,1.52-1.36,2.92-3.54,4.62-3.81C223.44,780.2,225.12,782.44,228,784.61Z"/><path d="M159.28,123.7c2.06,2.74,4.32,4.47,4.1,5.77-.3,1.71-2.55,3.09-3.95,4.62-1.43-1.35-3.93-2.64-4-4.06C155.35,128.38,157.38,126.62,159.28,123.7Z"/><path d="M689,746.91c2.17,2.9,4.29,4.5,4.35,6.18,0,1.4-2.43,4.13-3.59,4-1.7-.15-4.24-2.13-4.51-3.67S687.1,750,689,746.91Z"/><path d="M352.82,36.52c-3.22,1.92-5.14,4-6.62,3.7s-2.78-2.79-4.14-4.32c1.46-1.28,2.91-3.55,4.39-3.57C348.09,32.32,349.74,34.37,352.82,36.52Z"/><path d="M35.76,343c1.06,1.74,3,3.53,2.92,5.19-.09,1.44-2.53,3.79-3.94,3.79s-3.84-2.36-3.92-3.79c-.08-1.67,1.89-3.46,3-5.2Z"/><path d="M290.46,815.78c-3.2,1.89-5,3.79-6.67,3.68-1.41-.1-3.93-2.81-3.7-3.85.38-1.68,2.53-4,4.1-4.1S287.45,813.61,290.46,815.78Z"/><path d="M533.48,42.35c-2-2.9-4.06-4.57-4-6.18,0-1.38,2.73-4,3.81-3.74a6.32,6.32,0,0,1,4.13,4.06C537.67,37.74,535.48,39.52,533.48,42.35Z"/><path d="M65.93,260.44c-2-2.66-4.2-4.38-4-5.67.3-1.69,2.53-3,3.93-4.54,1.4,1.48,3.64,2.81,4,4.5C70.07,256,67.87,257.76,65.93,260.44Z"/><path d="M258.9,67.61c-2.72,1.88-4.52,4-5.8,3.77-1.68-.35-2.95-2.62-4.4-4.07,1.53-1.36,2.94-3.57,4.63-3.82C254.63,63.3,256.3,65.57,258.9,67.61Z"/><path d="M40.78,534.9c-2.86,2-4.52,4.08-6.14,4.05-1.37,0-4-2.71-3.75-3.79a6.38,6.38,0,0,1,4-4.19C36.16,530.69,38,532.9,40.78,534.9Z"/><path d="M414.74,846.66c-2.83,1.94-4.51,4-5.94,3.81S405,848,405,846.65s2.31-3.71,3.8-3.89S411.9,844.68,414.74,846.66Z"/><path d="M845,404.32c2,2.82,4.07,4.46,3.92,5.87s-2.4,2.83-3.73,4.23c-1.41-1.35-3.74-2.56-4-4.07S843.07,407.21,845,404.32Z"/><path d="M851.06,441.51c-2.86,1.91-4.55,3.93-5.95,3.74s-2.78-2.45-4.15-3.81c1.39-1.37,2.67-3.63,4.2-3.82S848.23,439.53,851.06,441.51Z"/><path d="M445.87,846.36c-2.74,2.08-4.32,4.21-5.71,4.09-1.54-.13-2.91-2.31-4.35-3.6,1.3-1.45,2.43-3.81,3.95-4.09S442.93,844.51,445.87,846.36Z"/><path d="M196.53,98.89c-3,1.75-4.64,3.52-6.23,3.44-1.27-.06-3.59-2.61-3.38-3.62.33-1.59,2.33-3.8,3.77-3.91S193.75,96.82,196.53,98.89Z"/><path d="M808,597.6c2.79-2.05,4.3-4,5.86-4,1.32,0,3.91,2.27,3.78,3.28-.19,1.62-2,4-3.43,4.26S811,599.4,808,597.6Z"/><path d="M97,198.06c-1.89-2.93-3.93-4.69-3.71-6.12s2.57-3.24,4.19-3.49c1-.15,3.35,2.37,3.33,3.67C100.77,193.7,98.89,195.25,97,198.06Z"/><path d="M601.76,815.63c-3,1.85-4.63,3.67-6.19,3.6-1.31-.05-3.72-2.55-3.53-3.54.33-1.6,2.27-3.79,3.75-4S598.88,813.63,601.76,815.63Z"/><path d="M626.66,61.48c2,2.81,4,4.32,4,5.88,0,1.33-2.25,3.92-3.24,3.8-1.63-.2-4-2-4.28-3.42S624.84,64.52,626.66,61.48Z"/><path d="M35,311.11c1.7,2.8,3.52,4.48,3.42,6-.08,1.26-2.81,3.54-3.77,3.27a6,6,0,0,1-3.6-4.07C30.9,315.15,33,313.61,35,311.11Z"/><path d="M850.88,379.41c-2.93,1.78-4.63,3.63-6.12,3.47s-2.45-2.49-3.66-3.86c1.46-1.26,2.8-3.25,4.43-3.53C846.69,375.29,848.25,377.38,850.88,379.41Z"/><path d="M845.55,478.58c-2.18-2.82-4.38-4.43-4.24-5.8.16-1.53,2.25-3.49,3.88-4,.87-.26,3.47,2.11,3.62,3.47C849,473.79,847.24,475.52,845.55,478.58Z"/><path d="M320.94,36.26c-2.65,1.93-4.33,4-5.46,3.76a6.32,6.32,0,0,1-3.92-3.91c-.24-.86,2.21-3.47,3.52-3.52C316.6,32.54,318.18,34.42,320.94,36.26Z"/><path d="M71.89,628.55c-3,1.89-4.61,3.72-6.15,3.66-1.34-.06-3.78-2.52-3.59-3.48.32-1.62,2.22-3.81,3.72-4S69,626.56,71.89,628.55Z"/><path d="M377.36,852.44c-1.79-2.81-3.72-4.55-3.42-5.7.42-1.59,2.52-2.73,3.89-4.07,1.27,1.32,3.51,2.63,3.53,4C381.38,848.14,379.39,849.67,377.36,852.44Z"/><path d="M477,847c-3,1.76-4.69,3.54-6.21,3.41s-3.78-2.68-3.54-3.57c.44-1.64,2.38-3.77,3.91-4C472.54,842.66,474.19,844.84,477,847Z"/><path d="M788.58,659.32c-2.58,2-4.12,4.12-5.33,3.95-1.6-.23-3-2.23-4.42-3.46,1.18-1.38,2.27-3.77,3.56-3.88C783.94,655.8,785.65,657.6,788.58,659.32Z"/><path d="M663.84,784.15c-2.76,2-4.3,3.94-5.8,3.91-1.34,0-2.62-2.27-3.93-3.54,1.35-1.39,2.5-3.5,4.1-3.91C659.35,780.32,661.08,782.31,663.84,784.15Z"/><path d="M253.21,821.1c-2-2.59-4-4.06-3.88-5.38s2.18-2.71,3.39-4.06c1.33,1.22,3.5,2.28,3.75,3.69S254.89,818.32,253.21,821.1Z"/><path d="M570.09,36.18C567.56,38,566,40,564.68,39.88s-3.53-2.25-3.57-3.56,2.1-3.45,3.47-3.61S567.51,34.44,570.09,36.18Z"/><path d="M40.29,565.81c-2.5,2-3.95,4-5.3,3.91s-3.65-2.06-3.77-3.37,2-3.51,3.33-3.74S37.56,564.18,40.29,565.81Z"/><path d="M814.09,260.07c-1.91-2.65-3.87-4.2-3.73-5.51s2.27-2.64,3.53-3.95c1.28,1.26,3.4,2.4,3.6,3.82S815.83,257.35,814.09,260.07Z"/><path d="M71.43,223.34c-2.72,1.77-4.36,3.68-5.63,3.45s-3.11-2.32-3.39-3.84c-.17-.89,2.18-3.14,3.42-3.16C67.27,219.77,68.74,221.52,71.43,223.34Z"/><path d="M227.23,67.44c-2.65,1.78-4.12,3.53-5.58,3.52-1.22,0-3.54-2.27-3.38-3.18.26-1.51,2-3.62,3.36-3.83S224.56,65.66,227.23,67.44Z"/><path d="M839.51,503.6c2.67-1.73,4.24-3.54,5.59-3.39s2.56,2.23,3.83,3.46c-1.35,1.3-2.56,3.37-4.1,3.66C843.66,507.55,842.07,505.5,839.51,503.6Z"/><path d="M507.85,846.7c-2.64,1.81-4.31,3.8-5.43,3.53-1.55-.38-2.67-2.47-4-3.83,1.31-1.2,2.55-3.24,4-3.37S505.23,844.82,507.85,846.7Z"/><path d="M159.24,747.46c1.91,2.75,3.78,4.27,3.64,5.56s-2.17,2.65-3.37,4c-1.27-1.24-3.35-2.35-3.57-3.75S157.5,750.32,159.24,747.46Z"/><path d="M757.2,161.29c-2.79,1.62-4.45,3.35-5.78,3.13s-2.38-2.39-3.54-3.71c1.33-1.16,2.62-3.17,4-3.22S754.65,159.36,757.2,161.29Z"/><path d="M720.34,135.4c-1.77-2.68-3.72-4.38-3.43-5.49.4-1.54,2.49-2.64,3.86-3.92,1.18,1.33,3.2,2.59,3.31,4S722.26,132.78,720.34,135.4Z"/><path d="M133.83,721.89c-2.58,1.9-4.22,4-5.33,3.71-1.56-.36-2.72-2.44-4-3.78,1.29-1.21,2.48-3.23,3.88-3.39S131.18,720.12,133.83,721.89Z"/><path d="M850.77,348.26c-2.86,1.68-4.51,3.42-5.79,3.18s-3.35-2.43-3.29-3.67,2.27-3.19,3.66-3.29S848.1,346.29,850.77,348.26Z"/><path d="M284.17,30.64c1.76,2.85,3.43,4.37,3.37,5.81-.06,1.25-2.37,3.55-3.19,3.35-1.5-.36-3.47-2.1-3.68-3.5S282.34,33.42,284.17,30.64Z"/><path d="M626.86,810.26c1.75,2.49,3.52,3.92,3.51,5.33,0,1.21-2.08,2.39-3.24,3.59-1.26-1.25-3.19-2.33-3.56-3.8C623.31,814.33,625.16,812.76,626.86,810.26Z"/><path d="M814.46,633.76c-1.93-2.3-3.92-3.65-3.8-4.77.15-1.47,2-2.77,3.08-4.14,1.28,1.06,3.5,2,3.62,3.2C817.51,629.49,815.91,631.11,814.46,633.76Z"/><path d="M40.29,285.4c-2.66,1.9-4.17,3.81-5.47,3.67s-3.2-2.07-3.55-3.53c-.21-.88,2-3.24,3.17-3.32C35.89,282.12,37.45,283.75,40.29,285.4Z"/><path d="M346.78,841.07c1.63,2.86,3.34,4.51,3.09,5.78s-2.37,2.38-3.67,3.54c-1.16-1.3-3.14-2.55-3.24-3.93S344.78,843.73,346.78,841.07Z"/><path d="M689.55,93c1.66,2.93,3.25,4.49,3.13,5.89-.11,1.24-2.39,3.41-3.24,3.2-1.45-.35-3.36-2.13-3.53-3.5S687.62,95.77,689.55,93Z"/><path d="M102.75,690.93c-2.91,1.75-4.53,3.51-5.82,3.28s-3-2.27-3.24-3.73c-.14-.89,2.13-3,3.34-3.05C98.46,687.41,99.91,689.08,102.75,690.93Z"/><path d="M844.92,540.59c-1.68-2.91-3.26-4.44-3.15-5.83.09-1.22,2.34-3.4,3.17-3.2,1.47.35,3.43,2.06,3.63,3.43S846.86,537.77,844.92,540.59Z"/><path d="M539,847c-2.94,1.66-4.65,3.4-5.87,3.11s-2.89-2.41-3.11-3.91c-.12-.86,2.25-2.92,3.46-2.9C534.92,843.32,536.29,845,539,847Z"/><path d="M788.05,191.81c-2.36,1.85-3.77,3.77-4.86,3.6-1.48-.24-2.71-2.06-4-3.2,1.09-1.24,2.11-3.4,3.29-3.49C783.86,188.6,785.42,190.26,788.05,191.81Z"/><path d="M190.78,789.63c-1.8-2.5-3.58-3.9-3.6-5.32,0-1.19,2-2.41,3.15-3.62,1.25,1.22,3.19,2.27,3.54,3.71C194.14,785.49,192.39,787.07,190.78,789.63Z"/><path d="M720.26,748.15c1.68,2.19,3.43,3.48,3.41,4.75s-1.84,2.45-2.87,3.67c-1.3-1.15-3.29-2.11-3.66-3.5C716.87,752,718.71,750.45,720.26,748.15Z"/><path d="M751.49,727c-1.62-2.35-3.51-4-3.22-4.93.44-1.43,2.41-2.39,3.72-3.56,1,1.26,2.75,2.49,2.82,3.8S753.14,724.76,751.49,727Z"/><path d="M315,851.64c-1.48-2.33-3.28-4-3-5,.41-1.39,2.41-2.3,3.73-3.42,1,1.26,2.82,2.52,2.82,3.77S316.71,849.51,315,851.64Z"/><path d="M845.43,321.78c-1.73-2.15-3.53-3.4-3.52-4.63s1.77-2.55,2.76-3.83c1.34,1.13,3.35,2.05,3.78,3.46C848.76,317.78,846.94,319.43,845.43,321.78Z"/><path d="M8.48,441.12C6.32,443,4.9,445,3.92,444.8c-1.47-.29-2.63-2.15-3.92-3.34,1.16-1.15,2.2-3,3.5-3.24S6.15,439.67,8.48,441.12Z"/><path d="M444.9,5.15c-2.22,1.56-3.58,3.26-4.83,3.18s-2.38-1.94-3.56-3c1.2-1.26,2.23-3.24,3.64-3.55C441.18,1.53,442.69,3.48,444.9,5.15Z"/><path d="M8.65,472.66c-2.57,1.67-3.95,3.26-5.27,3.22-1.14,0-3.25-2.17-3.08-3a5.12,5.12,0,0,1,3.22-3.41C4.66,469.3,6.14,471,8.65,472.66Z"/><path d="M476.06,4.9c-2.25,1.67-3.56,3.41-4.78,3.35S468,6.32,468,5.26a4.59,4.59,0,0,1,3-3.42C472.18,1.66,473.66,3.35,476.06,4.9Z"/><path d="M128.45,134.72c-1.7-2.24-3.49-3.57-3.41-4.78s2-2.4,3.07-3.59c1.19,1.1,3.17,2.08,3.36,3.33S130,132.35,128.45,134.72Z"/><path d="M850.26,566.09c-2.61,1.63-4,3.16-5.33,3.13-1.06,0-2.9-2-2.9-3s1.76-3.13,2.81-3.17C846.2,563,847.61,564.48,850.26,566.09Z"/><path d="M102,160.73c-2.34,1.71-3.59,3.32-4.93,3.39-1,0-3.19-1.91-3.09-2.75.18-1.36,1.64-3.33,2.85-3.56S99.56,159.23,102,160.73Z"/><path d="M71,659.58c-2.47,1.71-3.93,3.48-5.15,3.34s-2.76-2.13-3-3.52c-.15-.83,1.9-2.91,3-2.91C67.15,656.49,68.51,658,71,659.58Z"/><path d="M658.39,62.39c1.54,2.64,3.07,4.09,3,5.39-.1,1.14-2.31,3.13-3.12,2.93A5.06,5.06,0,0,1,655,67.35C654.81,66.2,656.61,64.81,658.39,62.39Z"/><path d="M159.44,103.62c-1.62-2.43-3.33-3.88-3.17-5.07s2.06-2.77,3.41-3c.82-.15,2.87,1.91,2.87,3C162.55,99.84,161,101.18,159.44,103.62Z"/><path d="M3.36,415.38c-1.58-2.63-3.27-4.21-3-5.34s2.26-2.66,3.68-2.91c.76-.13,2.71,2.08,2.68,3.21C6.68,411.65,5.09,412.93,3.36,415.38Z"/><path d="M382.33,5.52c-2.35,1.39-3.91,3-4.83,2.69a5.15,5.15,0,0,1-2.94-3.56c-.11-.81,2.15-2.8,3.2-2.71C379.08,2.06,380.25,3.78,382.33,5.52Z"/><path d="M39.8,597.42c-2.58,1.6-3.95,3.12-5.25,3.05-1.12-.05-3.17-2.13-3-2.92.3-1.38,1.87-3.21,3.14-3.42S37.27,595.69,39.8,597.42Z"/><path d="M787.43,691c-2.2,1.45-3.56,3-4.86,3-1.06,0-3.06-2.28-2.85-3.07a5.27,5.27,0,0,1,3.34-3.22C784,687.49,785.33,689.33,787.43,691Z"/><path d="M596.12,41.39c-1.85-2.48-3.65-3.85-3.52-5s1.9-2.92,3.26-3.29c.77-.21,2.94,1.74,3,2.86C599,37.25,597.59,38.71,596.12,41.39Z"/><path d="M8,379.28c-1.93,1.4-3.32,3.15-4.28,2.94-1.36-.31-2.41-2.05-3.59-3.17,1.24-1.08,2.38-2.78,3.77-3C4.89,375.86,6.19,377.73,8,379.28Z"/><path d="M409.16,0c1.4,2.62,3,4.22,2.7,5.42s-2.27,2.67-3.62,2.79c-.88.07-2.8-2.15-2.71-3.21C405.65,3.63,407.31,2.4,409.16,0Z"/><path d="M689.39,789c-1.63-2.13-3.43-3.51-3.22-4.42a5.21,5.21,0,0,1,3.24-3.3c.79-.2,3,1.82,3,2.88C692.47,785.44,690.88,786.77,689.39,789Z"/><path d="M564.32,851.48c-1.38-2.33-2.88-3.75-2.82-5.11,0-1,2-2,3.16-3,1.07,1.21,2.79,2.33,3,3.68C567.81,848,566,849.34,564.32,851.48Z"/><path d="M8,503.93c-1.93,1.42-3.42,3.25-4.28,3-1.33-.4-2.22-2.22-3.3-3.45,1.14-1,2.26-2.71,3.42-2.74S6.1,502.41,8,503.93Z"/><path d="M502.23,9.68c-1.46-2.11-3-3.42-3-4.72,0-1,2.2-3.12,2.92-2.92a5.26,5.26,0,0,1,3.26,3.25C505.58,6.22,503.8,7.6,502.23,9.68Z"/><path d="M253,40.73c-1.49-2-3.09-3.28-3-4.37s1.81-2.9,2.87-2.93,2.79,1.72,2.92,2.84S254.39,38.65,253,40.73Z"/><path d="M34.42,258.86c-1.28-2.16-2.76-3.54-2.55-4.59s2-2,3.12-2.94c1,1.12,2.62,2.2,2.67,3.36S36,256.91,34.42,258.86Z"/><path d="M350.85,4.85c-2,1.57-3.26,3.23-4.34,3.15s-2.57-1.76-2.92-3c-.18-.66,1.62-2.64,2.58-2.68C347.39,2.27,348.67,3.58,350.85,4.85Z"/><path d="M39,628.42c-1.87,1.41-3.08,3-3.95,2.8a4.72,4.72,0,0,1-3-2.82c-.21-.64,1.62-2.72,2.53-2.72C35.73,625.68,36.94,627.08,39,628.42Z"/><path d="M809.51,223.3c2-1.45,3.2-3,4.3-3s2.21,1.74,3.31,2.71c-1.09,1.13-2,2.87-3.33,3.19C812.89,226.47,811.5,224.75,809.51,223.3Z"/><path d="M8,347.69c-2,1.58-3.19,3.26-4.27,3.19s-2.62-1.75-2.93-3c-.18-.74,1.58-2.74,2.52-2.78C4.5,345.07,5.78,346.41,8,347.69Z"/><path d="M226.13,815.19c-1.84,1.6-2.94,3.29-4,3.29s-2.31-1.62-3.46-2.53c1-1.21,1.82-3,3.1-3.44C222.58,812.23,224.09,813.88,226.13,815.19Z"/><path d="M279.68,847c2-1.6,3.16-3.28,4.25-3.22s2.6,1.7,2.93,2.92c.19.7-1.53,2.71-2.46,2.76C283.18,849.52,281.88,848.23,279.68,847Z"/><path d="M845.14,290c-1.47-2.16-3.06-3.49-2.88-4.5s1.87-2.45,3.14-2.8c.6-.16,2.48,1.76,2.49,2.75C847.9,286.66,846.53,287.85,845.14,290Z"/><path d="M127.91,757.58c-1.24-2.31-2.52-3.63-2.42-4.85.07-.9,2-2.35,3-2.29s2.61,1.81,2.54,2.71C130.9,754.37,129.46,755.48,127.91,757.58Z"/><path d="M880.45,441.4c-1.92,1.37-3.07,2.81-4.27,2.85-.91,0-2.8-2-2.62-2.63a4.77,4.77,0,0,1,2.91-3C877.3,438.44,878.57,440,880.45,441.4Z"/><path d="M631,36.1c-1.65,1.44-2.8,3.15-3.62,3-1.25-.24-2.27-1.74-3.39-2.7,1-1,1.95-2.59,3.17-2.9C628,33.3,629.22,34.85,631,36.1Z"/><path d="M876.11,414.38c-1.26-1.79-2.81-3.07-2.6-3.91.31-1.22,1.88-2.11,2.92-3.15.94,1.13,2.44,2.16,2.64,3.4C879.2,411.57,877.53,412.71,876.11,414.38Z"/><path d="M751.83,125.64c1.26,2,2.63,3.21,2.62,4.43,0,.9-2.13,2.68-2.79,2.46a4.72,4.72,0,0,1-2.76-3.09C748.76,128.57,750.39,127.41,751.83,125.64Z"/><path d="M412.82,877.67c-1.65,1.42-2.79,3.1-3.64,3-1.24-.2-2.27-1.7-3.39-2.65,1-1.05,1.93-2.63,3.15-2.94C409.77,874.83,411.05,876.4,412.82,877.67Z"/><path d="M439.69,873.68c1.44,1.87,2.93,3,3,4.17.07.92-1.63,2-2.54,3-1.08-1-2.7-1.82-3.07-3C436.86,877,438.39,875.63,439.69,873.68Z"/><path d="M70.12,192c-2,1.45-3.14,2.91-4.35,3-.91,0-1.89-1.73-2.85-2.7,1-1,1.94-2.56,3.15-2.86C66.91,189.19,68.18,190.68,70.12,192Z"/><path d="M814.29,655.27c1.22,2.27,2.48,3.59,2.39,4.81-.07.89-2,2.35-2.94,2.28s-2.66-1.81-2.58-2.67C811.28,658.45,812.73,657.34,814.29,655.27Z"/><path d="M101.18,722.25c-2,1.26-3.3,2.63-4.46,2.55-1-.06-1.77-1.86-2.65-2.89,1.11-.94,2.12-2.41,3.37-2.64C98.25,719.11,99.4,720.75,101.18,722.25Z"/><path d="M657.7,811.28c1.55,1.75,3.2,2.83,3.1,3.71-.14,1.23-1.59,2.3-2.48,3.45-1.06-.83-2.91-1.6-3-2.51C655.24,814.72,656.53,813.4,657.7,811.28Z"/><path d="M7.79,535c-2,1.38-3.21,2.78-4.45,2.82-.85,0-2.64-2.05-2.46-2.79a4.5,4.5,0,0,1,3-2.76C4.75,532.14,6,533.67,7.79,535Z"/><path d="M720.66,102.59c-1.41-1.64-3.06-2.76-2.92-3.58.21-1.25,1.65-2.3,2.57-3.44,1.05,1,2.62,1.92,3,3.16C723.51,99.51,721.93,100.81,720.66,102.59Z"/><path d="M195,67.76c-2.26,1.23-3.56,2.5-4.79,2.42-.88-.05-2.35-2-2.28-2.93s1.79-2.69,2.65-2.61C191.77,64.75,192.88,66.2,195,67.76Z"/><path d="M537.6,5.47C535.55,6.67,534.26,8,533,7.93c-.87,0-2.53-2.21-2.29-2.91a4.53,4.53,0,0,1,3.16-2.58C534.79,2.33,535.88,4,537.6,5.47Z"/><path d="M163.32,784.51c-1.74,1.22-3.09,2.79-3.85,2.55-1.16-.38-1.93-2-2.86-3.1,1-.83,2-2.33,3.06-2.32S161.7,783.15,163.32,784.51Z"/><path d="M786.88,160.79c-1.79,1.41-3,3.05-3.81,2.86-1.21-.28-2.13-1.83-3.17-2.84,1-.89,1.89-2.38,2.94-2.49S785,159.56,786.88,160.79Z"/><path d="M849.27,597.15c-1.93,1.45-3,2.92-4.2,3-1,0-2-1.65-2.93-2.58,1-1,1.86-2.62,3.08-3C846,594.31,847.32,595.82,849.27,597.15Z"/><path d="M3.55,312.84c1.34,1.73,3,3,2.78,3.77-.34,1.19-1.92,2-3,3-.87-1-2.36-1.94-2.42-3S2.28,314.57,3.55,312.84Z"/><path d="M600,846.42c-1.78,1.46-2.91,3.07-3.78,2.93a4.62,4.62,0,0,1-3.16-2.64c-.22-.69,1.5-2.84,2.41-2.87C596.64,843.79,597.9,845.16,600,846.42Z"/><path d="M315.26,1.05C316.58,2.9,318,4,317.9,5s-1.54,2.07-2.39,3.1c-1-1-2.56-1.91-2.92-3.13C312.37,4.19,313.92,2.91,315.26,1.05Z"/><path d="M471.3,873.9c1.19,1.8,2.53,3,2.42,3.93s-1.63,1.89-2.53,2.83c-1-1-2.51-1.92-2.78-3.11C468.23,876.78,469.89,875.6,471.3,873.9Z"/><path d="M693.14,67.46c-1.78,1.3-2.9,2.73-3.83,2.62a3.71,3.71,0,0,1-2.53-2.64,3.72,3.72,0,0,1,2.54-2.67C690.26,64.66,691.37,66.13,693.14,67.46Z"/><path d="M845,250.46c1.35,1.91,2.77,3,2.67,4s-1.57,2.28-2.68,2.57c-.59.16-2.35-1.47-2.36-2.31C842.58,253.61,843.76,252.49,845,250.46Z"/><path d="M257,846.9c-2.07,1.19-3.34,2.5-4.26,2.29s-2.11-1.8-2.33-2.94c-.11-.57,1.7-2.15,2.56-2.1C254,844.22,255,845.5,257,846.9Z"/><path d="M3.51,562.08c1.33,2,2.56,3.08,2.58,4.16,0,.86-1.64,2.58-2.22,2.45A4.12,4.12,0,0,1,1,566.26C.87,565.33,2.23,564.12,3.51,562.08Z"/><path d="M66.2,694.84c-1.5-1.9-3.06-3-3-3.94s1.65-2.31,2.79-2.61c.64-.16,2.42,1.41,2.46,2.26C68.55,691.65,67.37,692.8,66.2,694.84Z"/><path d="M880.27,472.53c-1.79,1.35-2.89,2.83-3.86,2.75s-2.69-1.67-2.68-2.58a3.85,3.85,0,0,1,2.53-2.82C877.21,469.74,878.4,471.21,880.27,472.53Z"/><path d="M564.88,1.06c1.15,2.09,2.3,3.24,2.24,4.33,0,.85-1.82,2.43-2.4,2.26-1.1-.34-2.54-1.62-2.63-2.63S563.45,3,564.88,1.06Z"/><path d="M377.3,881.85c-1.17-2.05-2.5-3.35-2.26-4.25a4.09,4.09,0,0,1,3-2.28c.67-.08,2.27,1.72,2.19,2.55C380.13,879,378.79,880,377.3,881.85Z"/></g></g></svg>