<svg xmlns="http://www.w3.org/2000/svg" viewBox="0 0 128.03 127.97"><defs><style>.cls-1{fill:#888a8c;}.cls-2{fill:#fff;}</style></defs><g id="Layer_2" data-name="Layer 2"><g id="Layer_1-2" data-name="Layer 1"><path class="cls-1" d="M63.89,127.92c-18.09,0-36.18-.06-54.27,0A9.41,9.41,0,0,1,.1,120.11a9.73,9.73,0,0,1-.1-1.43V9.33A9.07,9.07,0,0,1,9.21,0C15,0,20.79,0,26.58,0q45.95,0,91.89,0a9.31,9.31,0,0,1,9.14,6.51,10.82,10.82,0,0,1,.4,2.7q0,54.74,0,109.48a9.06,9.06,0,0,1-9.15,9.22c-6.82,0-13.65,0-20.48,0Z"/><path class="cls-2" d="M68.27,56.2c0-2.56,0-4.76,0-7,0-1.08-.28-1.44-1.41-1.43-5.23,0-10.46.06-15.69,0-1.26,0-1.52.41-1.52,1.58q0,29.16,0,58.32c0,1.2.33,1.6,1.54,1.58q8.15-.08,16.3,0c1.22,0,1.53-.38,1.53-1.57Q69,93,69,78.37a35.15,35.15,0,0,1,.5-6.06c.74-4.13,2.63-7.48,7.06-8.59a16.38,16.38,0,0,1,4.14-.38c4.62,0,7.43,2.19,8.45,6.72A35.19,35.19,0,0,1,90,77.52c.09,10,.05,20.12,0,30.17,0,1.18.32,1.62,1.55,1.6q8.14-.08,16.29,0c1.17,0,1.47-.38,1.47-1.51q0-16.23,0-32.46a57,57,0,0,0-1.24-13.17c-1.21-5.12-3.45-9.61-8-12.56a21.28,21.28,0,0,0-9.34-3.06c-4.07-.44-8.1-.49-12,1A20.65,20.65,0,0,0,68.27,56.2Z"/><path class="cls-2" d="M18.76,78.6c0,9.74,0,19.47,0,29.21,0,1.18.38,1.49,1.51,1.48,5.47-.05,10.93,0,16.4,0,1.06,0,1.47-.28,1.46-1.42q0-29.34,0-58.67c0-1.16-.42-1.39-1.46-1.38-5.39,0-10.78,0-16.17,0-1.71,0-1.71,0-1.71,1.67Z"/><path class="cls-2" d="M28.35,39.64a11.11,11.11,0,1,0-11-11.1A11.06,11.06,0,0,0,28.35,39.64Z"/></g></g></svg>