<svg xmlns="http://www.w3.org/2000/svg" viewBox="0 0 131.21 127.97"><defs><style>.cls-1{fill:#888a8c;}</style></defs><g id="Layer_2" data-name="Layer 2"><g id="Layer_1-2" data-name="Layer 1"><path class="cls-1" d="M65.6,0A65.61,65.61,0,0,0,44.87,127.85c3.28.6,4.47-1.42,4.47-3.16,0-1.56-.05-5.68-.08-11.16-18.25,4-22.1-8.79-22.1-8.79-3-7.58-7.29-9.6-7.29-9.6-6-4.07.45-4,.45-4,6.59.47,10.05,6.77,10.05,6.77,5.85,10,15.36,7.13,19.09,5.45.6-4.24,2.29-7.13,4.17-8.77-14.57-1.66-29.88-7.29-29.88-32.43a25.34,25.34,0,0,1,6.75-17.6c-.68-1.66-2.93-8.33.64-17.36,0,0,5.51-1.77,18,6.72a62.14,62.14,0,0,1,32.85,0c12.52-8.49,18-6.72,18-6.72,3.58,9,1.33,15.7.66,17.36a25.33,25.33,0,0,1,6.74,17.6c0,25.21-15.34,30.75-29.95,32.37,2.35,2,4.45,6,4.45,12.15,0,8.77-.08,15.85-.08,18,0,1.75,1.18,3.8,4.51,3.15A65.61,65.61,0,0,0,65.6,0Z"/></g></g></svg>