<svg xmlns="http://www.w3.org/2000/svg" viewBox="0 0 118.82 118.81"><defs><style>.cls-1{fill:#888a8c;}.cls-2{fill:#fff;}</style></defs><g id="Layer_2" data-name="Layer 2"><g id="Layer_1-2" data-name="Layer 1"><path class="cls-1" d="M0,56.38c.17-1.5.32-3,.52-4.51A58.45,58.45,0,0,1,18.45,16.41,57.83,57.83,0,0,1,51,.6,59.41,59.41,0,0,1,74.28,116.93a56.39,56.39,0,0,1-10.8,1.72,8.85,8.85,0,0,0-.87.16H56.37c-.29,0-.58-.12-.87-.16-2.21-.26-4.44-.4-6.63-.8a58.66,58.66,0,0,1-35-20.33A57.69,57.69,0,0,1,.52,67.12c-.2-1.5-.35-3-.52-4.5Zm115.32,3.1a55.92,55.92,0,1,0-56.23,55.84A55.87,55.87,0,0,0,115.32,59.48Z"/><path class="cls-2" d="M0,62.62c.17,1.5.32,3,.52,4.5a57.69,57.69,0,0,0,13.34,30.4,58.66,58.66,0,0,0,35,20.33c2.19.4,4.42.54,6.63.8.29,0,.58.11.87.16H0Z"/><path class="cls-2" d="M115.32,59.48a55.92,55.92,0,1,1-55.83-56A55.87,55.87,0,0,1,115.32,59.48ZM92.38,22.71C82.17,13,65.55,7.12,48,11.31A47.72,47.72,0,0,0,18.16,32.23c.5,0,.73,0,1,0l13.27-.57a14.8,14.8,0,0,1,2.4,0,1.87,1.87,0,0,1,1.79,2,2,2,0,0,1-1.7,2.07,15,15,0,0,1-1.5.19c-1.37.15-2.75.28-4.24.42C35.11,54.05,41,71.7,47,89.52c.18-.38.3-.57.37-.78,3.39-10.19,6.8-20.38,10.16-30.59a2.75,2.75,0,0,0,0-1.63c-2.32-6.48-4.69-13-7-19.42a1.19,1.19,0,0,0-1.14-.92c-1.51-.13-3-.29-4.52-.48a1.81,1.81,0,0,1-1.71-1.93c0-1.39.83-2.2,2.45-2.18,2.22,0,4.45.2,6.68.24,4.25.07,8.5.14,12.74.12,2.14,0,4.27-.28,6.41-.37a2,2,0,0,1,2.35,1.89c.12,1.23-.6,2-2,2.26-.44.07-.88.11-1.33.15l-4.13.42c5.94,17.63,11.83,35.18,17.79,52.88.13-.31.2-.44.24-.58,2.48-8.21,5-16.4,7.44-24.63a22.43,22.43,0,0,0-.92-16.27C89.6,45,88,42.44,86.63,39.78A32.5,32.5,0,0,1,84.3,34.5C82.69,29.18,85.64,24,90.77,22.93,91.28,22.82,91.81,22.79,92.38,22.71ZM75.7,106.14,60.38,64.19l-.23,0L45.47,106.9A49.86,49.86,0,0,0,75.7,106.14ZM37.37,103.7l.18-.19L14.16,39.45c-.14.29-.22.42-.27.55a49,49,0,0,0-3.47,26.42A47.09,47.09,0,0,0,24.24,94,52.76,52.76,0,0,0,35,102.62C35.75,103.05,36.58,103.34,37.37,103.7Zm47.11-1.77a48.91,48.91,0,0,0,24.11-37.1c1.07-9.19-2-25.19-5.47-28.06,0,.24,0,.48,0,.71a40.54,40.54,0,0,1-2.27,17.09Q94.1,74.11,87.32,93.67C86.39,96.35,85.47,99,84.48,101.93Z"/><path class="cls-1" d="M92.38,22.71c-.57.08-1.1.11-1.61.22C85.64,24,82.69,29.18,84.3,34.5a32.5,32.5,0,0,0,2.33,5.28c1.36,2.66,3,5.21,4.24,7.92A22.43,22.43,0,0,1,91.79,64c-2.42,8.23-5,16.42-7.44,24.63,0,.14-.11.27-.24.58-6-17.7-11.85-35.25-17.79-52.88l4.13-.42c.45,0,.89-.08,1.33-.15,1.39-.22,2.11-1,2-2.26a2,2,0,0,0-2.35-1.89c-2.14.09-4.27.35-6.41.37-4.24,0-8.49-.05-12.74-.12-2.23,0-4.46-.2-6.68-.24-1.62,0-2.47.79-2.45,2.18a1.81,1.81,0,0,0,1.71,1.93c1.5.19,3,.35,4.52.48a1.19,1.19,0,0,1,1.14.92c2.35,6.47,4.72,12.94,7,19.42a2.75,2.75,0,0,1,0,1.63C54.2,68.36,50.79,78.55,47.4,88.74c-.07.21-.19.4-.37.78C41,71.7,35.11,54.05,29.15,36.29c1.49-.14,2.87-.27,4.24-.42a15,15,0,0,0,1.5-.19,2,2,0,0,0,1.7-2.07,1.87,1.87,0,0,0-1.79-2,14.8,14.8,0,0,0-2.4,0l-13.27.57c-.24,0-.47,0-1,0A47.72,47.72,0,0,1,48,11.31C65.55,7.12,82.17,13,92.38,22.71Z"/><path class="cls-1" d="M75.7,106.14a49.86,49.86,0,0,1-30.23.76L60.15,64.23l.23,0Z"/><path class="cls-1" d="M37.37,103.7c-.79-.36-1.62-.65-2.38-1.08A52.76,52.76,0,0,1,24.24,94a47.09,47.09,0,0,1-13.82-27.6A49,49,0,0,1,13.89,40c0-.13.13-.26.27-.55l23.39,64.06Z"/><path class="cls-1" d="M84.48,101.93c1-2.89,1.91-5.58,2.84-8.26q6.77-19.56,13.53-39.1a40.54,40.54,0,0,0,2.27-17.09c0-.23,0-.47,0-.71,3.46,2.87,6.54,18.87,5.47,28.06A48.91,48.91,0,0,1,84.48,101.93Z"/></g></g></svg>