<svg xmlns="http://www.w3.org/2000/svg" viewBox="0 0 115.11 115.06"><g id="Layer_2" data-name="Layer 2"><g id="Layer_1-2" data-name="Layer 1"><path class="cls-1" d="M57.61,0A57.53,57.53,0,1,1,0,56.9,57.39,57.39,0,0,1,57.61,0ZM41.45,37.38h0c-4.35,0-8.71,0-13.06,0A10.62,10.62,0,0,0,20,41.44a18,18,0,0,0-3.64,8.9,41.14,41.14,0,0,0-.28,10.28,24.18,24.18,0,0,0,2.63,9.82c1.77,3.21,4.32,5.44,8.1,5.76,2.13.19,4.28.06,6.42.06,1,0,1,0,1-1,0-3.32,0-6.64.16-10a10.37,10.37,0,0,1,3.51-7.51,10.18,10.18,0,0,1,7-2.4H57.83c2.55,0,5.11,0,7.65-.13A10.89,10.89,0,0,0,72,52.76a9.58,9.58,0,0,0,3.22-7.66c0-5.7,0-11.41,0-17.11,0-4.07-2-6.75-5.41-8.56a24.73,24.73,0,0,0-10.36-2.51,52,52,0,0,0-12.58.53A17.13,17.13,0,0,0,39,20.67a6.26,6.26,0,0,0-2.55,5.24c.08,2.66,0,5.34,0,8,0,1,0,1,1,1H54.23c1.66,0,1.43-.16,1.45,1.48,0,1,0,1-1,1ZM70.68,76.53v0c4.36,0,8.71,0,13.07,0a10.44,10.44,0,0,0,7.37-3,15.77,15.77,0,0,0,4.31-8.41,40.06,40.06,0,0,0,.4-13.42,20.81,20.81,0,0,0-3-9C91,39.88,88.56,38,85.1,37.83c-2.11-.1-4.23,0-6.35,0-.64,0-.83.23-.82.84,0,2.79,0,5.59,0,8.38a20,20,0,0,1-.17,2.44C77,55,73.07,58.53,67.5,58.59c-6.23.07-12.46,0-18.69,0a21.16,21.16,0,0,0-2.52.12,10.43,10.43,0,0,0-7.43,4A9.8,9.8,0,0,0,37,68.88c0,5.58,0,11.16,0,16.74a14.49,14.49,0,0,0,.12,2.8,8.7,8.7,0,0,0,4.72,5.88c3.38,1.89,7.11,2.45,10.89,2.75a50.61,50.61,0,0,0,10.44-.27,21.3,21.3,0,0,0,8.56-2.62c2.47-1.49,4-3.53,3.8-6.61-.13-2.47,0-5,0-7.43,0-1,0-1-1-1H57.78c-1.68,0-1.51.24-1.52-1.56,0-1,0-1,1-1Z"/><path class="cls-1" d="M41.54,26.35a3.19,3.19,0,0,1,3.29-3.25,3.15,3.15,0,0,1,3.24,3.28,3.23,3.23,0,0,1-3.27,3.29A3.27,3.27,0,0,1,41.54,26.35Z"/><path class="cls-1" d="M68,90.09a3.33,3.33,0,1,1,3.39-3.3A3.33,3.33,0,0,1,68,90.09Z"/></g></g></svg>