<svg xmlns="http://www.w3.org/2000/svg" viewBox="0 0 130.95 131.23"><g id="Layer_2" data-name="Layer 2"><g id="Layer_1-2" data-name="Layer 1"><path class="cls-1" d="M130.88,65.38c0,15.2.06,30.4,0,45.61-.05,9.78-9,19.18-18.71,19.85q-4.79.33-9.59.35c-26.17,0-52.33,0-78.5,0-7.74,0-14.48-2-19.43-8.32A20.18,20.18,0,0,1,0,110.06C.05,80.38,0,50.69.05,21A21.23,21.23,0,0,1,21.28,0Q65.33,0,109.4,0a21,21,0,0,1,21.45,21c.19,14.78.05,29.57.05,44.36Zm-44.6-1.53c2.4-2.52,5.34-4.7,7.07-7.59,7.4-12.45-1.51-27.45-16.55-27.9-12.71-.37-25.43-.29-38.14-.58-2.72-.06-3.49.72-3.47,3.47.11,23.48.06,47,.07,70.44,0,1,.09,2,.15,3.18,1,.08,1.78.2,2.57.2,12.62,0,25.24,0,37.85-.18,5.91-.09,11.62-1.74,16-5.7a22.15,22.15,0,0,0,6.19-9C101,81.46,99.19,68.36,86.28,63.85Z"/><path class="cls-1" d="M49.3,93.77V70.32c2.38,0,4.7,0,7,0,6.29.1,12.6-.07,18.86.41,7.11.55,10.26,5,9.8,13-.34,5.92-4.56,9.74-10.89,9.84q-10.66.18-21.35.33C51.65,94,50.54,93.84,49.3,93.77Z"/><path class="cls-1" d="M49.33,60V39.29c4.37,0,8.58,0,12.79,0,3.61.06,7.22.23,10.82.4,5.69.28,8.65,3.3,8.88,9,.25,6.19-2.94,10.93-8.28,11.16C65.61,60.21,57.66,60,49.33,60Z"/></g></g></svg>