<svg xmlns="http://www.w3.org/2000/svg" viewBox="0 0 119.08 119.09"><defs><style>.cls-1{fill:#888a8c;}</style></defs><g id="Layer_2" data-name="Layer 2"><g id="Layer_1-2" data-name="Layer 1"><path class="cls-1" d="M0,59.54a59.54,59.54,0,1,1,59,59.55A59.52,59.52,0,0,1,0,59.54Zm51.48-16.6c-.39,0-.65,0-.92,0A59.85,59.85,0,0,0,43,42.71c-6,.56-11.1,2.85-14.85,7.76A21.28,21.28,0,0,0,24,63c-.22,5.93.89,11.5,5.29,15.9,3.61,3.59,8.23,5,13.1,5.6,6.93.89,13.79,0,20.62-1.16,1.12-.19,1.48-.58,1.48-1.76q-.06-28,0-56V23.74H51.48Zm33.24.61H71.89v1.84c0,8.3,0,16.59,0,24.88,0,3.31-.19,6.63-.44,9.93-.53,7-3.79,12.3-10.4,15.23-.51.23-1,.54-1.75.95,4.06,1.93,7.79,3.71,11.54,5.44a1.6,1.6,0,0,0,1.16-.13c5.49-2.62,9.66-6.56,11.14-12.6a52,52,0,0,0,1.56-11.3c.22-11,.1-22,.11-33C84.79,44.39,84.75,44,84.72,43.55ZM72,36.9H84.69v-13H72Z"/><path class="cls-1" d="M51.5,63.79c0,3,0,6,0,9,0,1-.35,1.44-1.33,1.4a44.46,44.46,0,0,1-6.44-.32,7.47,7.47,0,0,1-6-5.52A14.35,14.35,0,0,1,37.61,60a9.88,9.88,0,0,1,13.14-6.56,1.6,1.6,0,0,1,.72,1.21C51.53,57.71,51.5,60.75,51.5,63.79Z"/></g></g></svg>