<svg xmlns="http://www.w3.org/2000/svg" xmlns:xlink="http://www.w3.org/1999/xlink" viewBox="0 0 144.47 143.86"><defs><style>.cls-1,.cls-9{fill:#fff;}.cls-1{fill-rule:evenodd;}.cls-2{fill:url(#linear-gradient);}.cls-3{fill:#ababab;}.cls-10,.cls-4,.cls-5,.cls-7{isolation:isolate;}.cls-4{opacity:0.12;}.cls-6{fill:#939393;}.cls-10,.cls-7{opacity:0.2;}.cls-8{fill:#c8c8c8;}.cls-9{fill-opacity:0.2;}.cls-10{fill:#4b4b4b;}.cls-11{fill:none;}.cls-12{mask:url(#mask);}.cls-13{mask:url(#mask-2);}.cls-14{fill:url(#linear-gradient-3);}</style><linearGradient id="linear-gradient" x1="-837.82" y1="45.17" x2="-836.9" y2="45.84" gradientTransform="translate(91763.39 -6748.98) scale(109.5 150.04)" gradientUnits="userSpaceOnUse"><stop offset="0" stop-color="#fff" stop-opacity="0.1"/><stop offset="1" stop-color="#fff" stop-opacity="0"/></linearGradient><mask id="mask" x="24.09" y="5.99" width="96.29" height="131.87" maskUnits="userSpaceOnUse"><g id="mask-3"><path id="path-2" class="cls-1" d="M107.89,35.44a3,3,0,0,0-2-2.38,3,3,0,0,0-3.08.71L87.23,49.42l-12.4-23.3a3,3,0,0,0-2.64-1.67,2.89,2.89,0,0,0-2.64,1.67L62.87,38.87,46,7.56a3,3,0,0,0-5.63,1L24.09,112.38l43.53,24.35a9.15,9.15,0,0,0,8.79,0l44-24.35Z"/></g></mask><mask id="mask-2" x="24.09" y="6.6" width="96.29" height="131.96" maskUnits="userSpaceOnUse"><g id="mask-3-2" data-name="mask-3"><path id="path-2-2" data-name="path-2" class="cls-1" d="M107.89,36.05a3,3,0,0,0-2-2.37,3.06,3.06,0,0,0-3.08.7L87.23,50.12,74.92,26.82a3.05,3.05,0,0,0-2.64-1.67,2.89,2.89,0,0,0-2.64,1.67L63,39.57,46,8.18a3,3,0,0,0-5.63,1L24.09,113.08l43.53,24.36a9.2,9.2,0,0,0,8.79,0l44-24.36Z"/></g></mask><linearGradient id="linear-gradient-3" x1="-837.82" y1="45.18" x2="-836.9" y2="45.84" xlink:href="#linear-gradient"/></defs><g id="Layer_2" data-name="Layer 2"><g id="Layer_1-2" data-name="Layer 1"><g id="_Path_5" data-name=" Path 5"><path id="path-2-4" data-name="path-2" class="cls-2" d="M107.89,35.44a3,3,0,0,0-2-2.38,3,3,0,0,0-3.08.71L87.23,49.42l-12.4-23.3a3,3,0,0,0-2.64-1.67,2.89,2.89,0,0,0-2.64,1.67L62.87,38.87,46,7.56a3,3,0,0,0-5.63,1L24.09,112.38l43.53,24.35a9.15,9.15,0,0,0,8.79,0l44-24.35Z"/></g><g id="_Group_2" data-name=" Group 2"><g id="_Group_3" data-name=" Group 3"><path id="_Path_" data-name=" Path " class="cls-3" d="M24.05,112.41,40.41,8.56A3,3,0,0,1,46,7.6L62.92,38.9,69.6,26.15a3.06,3.06,0,0,1,2.64-1.58,3,3,0,0,1,2.64,1.58l45.46,86.26Z"/><g id="_Group_4" data-name=" Group 4"><g class="cls-4"><image id="Bitmap" class="cls-5" width="87" height="112" transform="translate(18.48 32.22) scale(0.74)" xlink:href="../../../../../icons/C0222926.png"/></g><polygon id="Shape" class="cls-6" points="80.33 71.98 62.83 38.92 24.05 112.43 80.33 71.98"/></g></g><g id="_Group_5" data-name=" Group 5"><g class="cls-7"><image id="_Image_" data-name=" Image " class="cls-5" width="140" height="155" transform="translate(21.6 26.22) scale(0.74)" xlink:href="../../../../../icons/C022292A.png"/></g><g id="_Group_6" data-name=" Group 6"><path id="_Path_2" data-name=" Path 2" class="cls-8" d="M120.38,112.4,107.89,35.46a3,3,0,0,0-2-2.37,3,3,0,0,0-3.08.7L24.09,112.4l43.53,24.36a9.2,9.2,0,0,0,8.79,0Z"/></g></g><path id="_Compound_Path_" data-name=" Compound Path " class="cls-9" d="M107.85,35.47a3,3,0,0,0-2-2.37,3.06,3.06,0,0,0-3.08.7L87.19,49.45,74.88,26.15a3.05,3.05,0,0,0-2.64-1.67,2.91,2.91,0,0,0-2.64,1.67L62.92,38.9,46,7.6a3,3,0,0,0-5.63,1L24.05,112.41h0l.09.09.44.26L87.19,50.24l15.65-15.56a3,3,0,0,1,3.08-.7,3,3,0,0,1,2,2.37l12.31,76.24.18-.09ZM24.23,112.24l16.18-103A3,3,0,0,1,46,8.3L62.92,39.6,69.6,26.85a3.08,3.08,0,0,1,2.64-1.58,3,3,0,0,1,2.64,1.58L87,49.72Z"/><path id="_Path_3" data-name=" Path 3" class="cls-10" d="M76.46,136.07a9.2,9.2,0,0,1-8.79,0L24.14,111.71l-.09.7,43.62,24.36a9.2,9.2,0,0,0,8.79,0l44-24.36-.09-.7Z"/></g><polygon id="_Path_4" data-name=" Path 4" class="cls-11" points="0 0 144.47 0 144.47 143.86 0 143.86 0 0"/><g class="cls-12"><path id="_Path_5-2" data-name=" Path 5" class="cls-2" d="M107.89,35.44a3,3,0,0,0-2-2.38,3,3,0,0,0-3.08.71L87.23,49.42l-12.4-23.3a3,3,0,0,0-2.64-1.67,2.89,2.89,0,0,0-2.64,1.67L62.87,38.87,46,7.56a3,3,0,0,0-5.63,1L24.09,112.38l43.53,24.35a9.15,9.15,0,0,0,8.79,0l44-24.35Z"/></g><g class="cls-13"><path id="_Path_5-3" data-name=" Path 5" class="cls-14" d="M107.89,36.05a3,3,0,0,0-2-2.37,3.06,3.06,0,0,0-3.08.7L87.23,50.12,74.92,26.82a3.05,3.05,0,0,0-2.64-1.67,2.89,2.89,0,0,0-2.64,1.67L63,39.57,46,8.18a3,3,0,0,0-5.63,1L24.09,113.08l43.53,24.36a9.2,9.2,0,0,0,8.79,0l44-24.36Z"/></g><g class="cls-13"><path id="_Path_5-4" data-name=" Path 5" class="cls-14" d="M107.89,36.05a3,3,0,0,0-2-2.37,3.06,3.06,0,0,0-3.08.7L87.23,50.12,74.92,26.82a3.05,3.05,0,0,0-2.64-1.67,2.89,2.89,0,0,0-2.64,1.67L63,39.57,46,8.18a3,3,0,0,0-5.63,1L24.09,113.08l43.53,24.36a9.2,9.2,0,0,0,8.79,0l44-24.36Z"/></g></g></g></svg>