<svg xmlns="http://www.w3.org/2000/svg" xmlns:xlink="http://www.w3.org/1999/xlink" viewBox="0 0 124.45 74.67"><defs><style>.cls-1{fill:none;}.cls-2{clip-path:url(#clip-path);}.cls-3{fill:#888a8c;fill-rule:evenodd;}</style><clipPath id="clip-path"><rect class="cls-1" width="124.45" height="74.67"/></clipPath></defs><g id="Layer_2" data-name="Layer 2"><g id="Layer_1-2" data-name="Layer 1"><g class="cls-2"><path class="cls-3" d="M62.23,0Q37.33,0,31.11,24.89q9.35-12.45,21.78-9.33C57.63,16.74,61,20.17,64.75,24c6.1,6.19,13.17,13.36,28.59,13.36q24.89,0,31.11-24.89-9.33,12.43-21.78,9.33c-4.73-1.18-8.11-4.62-11.86-8.42C84.71,7.17,77.65,0,62.23,0ZM31.11,37.34Q6.23,37.34,0,62.23q9.33-12.45,21.78-9.34c4.73,1.19,8.12,4.62,11.86,8.42,6.1,6.19,13.16,13.36,28.59,13.36q24.89,0,31.11-24.89Q84,62.23,71.56,59.11c-4.73-1.18-8.12-4.61-11.86-8.41C53.6,44.5,46.54,37.34,31.11,37.34Z"/></g></g></g></svg>